<svg width="124" height="124" viewBox="0 0 124 124" fill="none" xmlns="http://www.w3.org/2000/svg">
<rect width="124" height="124" rx="62" fill="white"/>
<path d="M63.7913 19.236C63.7473 19.236 63.7033 19.236 63.7033 19.28C63.4833 19.544 63.2633 19.852 63.0873 20.116C61.1513 23.152 59.1713 26.144 57.2353 29.18C54.8153 32.876 52.3953 36.616 50.0193 40.312C48.0833 43.26 46.1913 46.208 44.2993 49.156C42.3193 52.148 40.3833 55.184 38.4473 58.22L34.4873 64.336C33.3433 66.184 32.1993 67.988 31.0553 69.792C28.9873 73.18 26.9193 76.568 24.8953 80C23.2233 82.728 21.6393 85.456 20.0553 88.228C19.9233 88.448 19.7913 88.668 19.5713 88.8C19.5273 89.108 19.3953 89.372 19.1313 89.548C19.2193 89.24 19.3073 89.02 19.5713 88.8C19.6153 88.712 19.6153 88.624 19.7033 88.536C19.9673 87.964 20.2753 87.436 20.5833 86.908C23.0033 82.64 25.4673 78.46 28.0193 74.28C29.4273 71.948 30.8353 69.616 32.3313 67.328C35.1033 62.928 37.9193 58.572 40.7353 54.172C43.6393 49.684 46.5433 45.196 49.4913 40.708C52.9233 35.384 56.3553 30.06 59.7873 24.78C60.9753 22.932 62.1633 21.128 63.3513 19.324C63.4393 19.236 63.5273 19.104 63.5713 18.972C63.5713 18.928 63.5713 18.84 63.5273 18.752C63.4833 18.664 63.3513 18.664 63.2633 18.752C63.0873 18.884 62.9553 19.06 62.8233 19.192C62.5593 19.5 62.3393 19.808 62.1193 20.116L61.9433 20.38C61.8553 20.512 61.7673 20.644 61.7233 20.776C61.6353 20.82 61.5913 20.908 61.5473 20.996C61.4593 21.26 61.3273 21.436 61.1073 21.612L60.9753 21.876C60.7993 22.052 60.6673 22.272 60.5353 22.492C60.4913 22.58 60.4473 22.668 60.3593 22.712C60.2273 22.932 60.0953 23.152 59.9633 23.372L59.8313 23.592C59.7433 23.856 59.6113 24.076 59.3913 24.252C59.3473 24.296 59.3033 24.384 59.2153 24.472C59.1713 24.736 59.0393 24.912 58.8193 25.132C58.7753 25.176 58.7313 25.264 58.6433 25.352C58.5553 25.66 58.3793 25.968 58.1153 26.188C58.0273 26.276 57.9833 26.364 57.9393 26.452L57.6753 26.848C57.6313 26.936 57.5873 26.98 57.4993 27.068L57.3673 27.332C57.3233 27.596 57.1473 27.772 56.9713 27.992C56.9273 28.036 56.8393 28.124 56.7953 28.212C56.7073 28.52 56.5313 28.828 56.2233 29.048L56.0913 29.312C56.0033 29.576 55.8713 29.796 55.6513 29.928L55.5193 30.192C55.4313 30.412 55.2993 30.632 55.0793 30.808C55.0353 30.896 54.9913 30.984 54.9473 31.028C54.8153 31.38 54.6393 31.688 54.3753 31.908C54.3313 31.996 54.2873 32.084 54.1993 32.172C54.1553 32.436 54.0233 32.612 53.8033 32.788C53.7593 32.876 53.7153 32.964 53.6273 33.052C53.5393 33.404 53.3633 33.712 53.0553 33.932C52.9673 34.284 52.7913 34.548 52.4833 34.768L52.3513 35.032C52.2633 35.252 52.1313 35.472 51.9553 35.648L51.7793 35.912C51.6473 36.22 51.4713 36.572 51.2073 36.792C51.1193 37.144 50.8993 37.408 50.6353 37.628L50.5033 37.892C50.4153 38.156 50.2833 38.376 50.0633 38.508L49.9313 38.772C49.7993 39.124 49.6233 39.432 49.3153 39.652C49.2273 40.004 49.0513 40.268 48.7873 40.488C48.7433 40.576 48.6993 40.664 48.6553 40.752L48.2153 41.412C48.1713 41.456 48.1273 41.544 48.0833 41.632C47.9073 41.94 47.7753 42.292 47.4673 42.512C47.3793 42.864 47.2033 43.128 46.9393 43.348C46.8513 43.436 46.8073 43.524 46.7633 43.612C46.6313 43.964 46.4553 44.272 46.1473 44.492C46.1033 44.844 45.8833 45.108 45.6193 45.372L45.4873 45.592C45.3993 45.856 45.2673 46.076 45.0473 46.208L44.9153 46.472C44.7833 46.824 44.5633 47.088 44.3433 47.352L43.1553 49.2C43.1113 49.288 43.0673 49.288 43.0233 49.332C42.9353 49.684 42.7153 49.948 42.4953 50.212C42.4513 50.3 42.3633 50.344 42.3193 50.432C42.1873 50.784 42.0113 51.048 41.7473 51.312C41.6153 51.664 41.4393 51.928 41.1753 52.192C40.9553 52.588 40.6913 52.94 40.4713 53.292L39.8993 54.216C39.5033 54.876 39.1073 55.536 38.6233 56.196C38.5793 56.24 38.4913 56.328 38.4473 56.416L38.0513 57.032C38.0073 57.12 37.9193 57.208 37.8753 57.296L37.1713 58.396C36.9953 58.704 36.7753 58.968 36.5993 59.276C36.4233 59.672 36.1593 60.068 35.8953 60.376C35.8073 60.464 35.7633 60.552 35.7193 60.64C35.5433 61.036 35.3233 61.432 35.0153 61.784C34.8393 62.18 34.6193 62.532 34.3113 62.884C34.2233 62.972 34.1793 63.06 34.1353 63.148C34.0033 63.456 33.8273 63.764 33.5633 63.984L33.4313 64.248C33.3873 64.336 33.3433 64.424 33.2553 64.468L32.9913 64.996C32.6833 65.524 32.3313 66.096 31.9793 66.624C31.8473 66.844 31.6713 67.02 31.4953 67.24C31.4073 67.68 31.0553 68.032 30.8353 68.472C30.7473 68.604 30.6153 68.692 30.4833 68.824C30.4833 68.912 30.4833 69 30.4393 69.044C30.1313 69.572 29.8233 70.056 29.5153 70.54C29.4713 70.584 29.3833 70.628 29.3393 70.716C29.3393 70.76 29.3393 70.848 29.2953 70.892C28.8993 71.508 28.5033 72.168 28.1073 72.828C28.0193 72.916 27.9753 73.004 27.9313 73.092C27.4913 73.796 27.0953 74.544 26.6553 75.292L25.9073 76.436C25.8633 76.524 25.8193 76.612 25.7753 76.656C25.6433 76.876 25.5553 77.052 25.4673 77.228L22.2993 82.508C22.2553 82.64 22.1673 82.772 22.0353 82.904C21.9913 82.86 21.9913 82.816 21.9913 82.772C21.8593 82.948 21.7713 83.168 21.6393 83.344V83.608C21.5953 83.696 21.5513 83.784 21.5073 83.828C21.4633 83.828 21.4193 83.828 21.3753 83.828L21.2433 84.092C21.1993 84.18 21.1993 84.268 21.1993 84.356H21.1113C21.0233 84.444 20.9793 84.488 20.9353 84.576C20.9353 84.664 20.9353 84.752 20.8913 84.84L20.7593 85.104C20.7153 85.148 20.6713 85.236 20.6273 85.324C20.5833 85.324 20.5393 85.324 20.4953 85.368C20.2753 85.544 20.1433 85.808 20.0553 86.072V86.336C20.0113 86.336 19.9673 86.336 19.9233 86.336L18.7353 88.228C18.5593 88.492 18.4713 88.8 18.2073 89.02C18.2073 88.756 18.3833 88.492 18.5593 88.272C19.5273 86.512 20.5393 84.752 21.5513 82.992C23.6633 79.34 25.8193 75.732 28.0633 72.124L33.4753 63.412C34.7513 61.344 36.0713 59.32 37.3913 57.296C39.5033 54.04 41.6153 50.828 43.7273 47.616C45.6193 44.668 47.5553 41.72 49.4913 38.728C51.9113 35.076 54.3313 31.38 56.7513 27.684C56.9273 27.376 57.1473 27.068 57.3673 26.804L57.7633 26.1C58.6433 24.78 59.5233 23.46 60.4033 22.14L60.7993 21.568C61.0193 21.26 61.1953 20.996 61.3713 20.688C61.5033 20.468 61.5913 20.248 61.8553 20.116L61.9873 19.764C62.2073 19.5 62.3833 19.236 62.6033 18.928C62.6913 18.84 62.7353 18.708 62.8233 18.62C62.8673 18.532 62.7793 18.444 62.6913 18.444C62.5593 18.488 62.4273 18.488 62.3393 18.576C62.2073 18.708 62.0753 18.884 61.9873 19.016C61.0193 20.38 60.0953 21.7 59.1713 23.064C58.7753 23.636 58.4233 24.252 58.0273 24.824C56.9713 26.408 55.9153 27.992 54.8593 29.576L54.3313 30.368C53.5833 31.556 52.8353 32.7 52.0873 33.844C51.2073 35.164 50.3273 36.44 49.4913 37.76C49.0073 38.464 48.5673 39.168 48.1273 39.872C47.5113 40.752 46.9393 41.632 46.3673 42.512L44.0793 45.944C43.2873 47.132 42.5393 48.276 41.7913 49.464C41.0873 50.564 40.3393 51.664 39.6353 52.764L36.5993 57.384C36.2913 57.824 36.0273 58.308 35.7633 58.748C34.9713 59.936 34.2233 61.124 33.4753 62.268C32.9033 63.148 32.3753 63.984 31.8473 64.864C31.6273 65.172 31.4513 65.48 31.2313 65.832C30.5713 66.844 29.9553 67.856 29.3393 68.912C28.4153 70.364 27.4913 71.86 26.5673 73.312L26.4793 73.444C25.7753 74.632 25.0713 75.864 24.3233 77.096C23.9273 77.8 23.4873 78.46 23.0473 79.164C22.3433 80.44 21.6393 81.672 20.8913 82.904C20.0113 84.444 19.1313 85.94 18.2513 87.48L16.5353 90.56C15.8313 91.748 15.1273 92.892 14.4233 94.036C14.3793 94.124 14.3353 94.212 14.2473 94.256C14.2033 94.256 14.0713 94.256 14.0713 94.212C13.9393 93.904 13.7193 93.596 13.8513 93.2C13.8513 93.068 13.7633 92.936 13.7633 92.76C13.7633 92.012 13.7193 91.264 13.7193 90.516C13.8073 88.712 13.8513 86.952 13.9393 85.148C14.0273 83.96 14.1153 82.728 14.2473 81.496C14.2913 80.484 14.4233 79.428 14.5113 78.416C14.5553 77.668 14.5553 76.964 14.5993 76.216C14.7313 74.852 14.9073 73.488 15.0393 72.08C15.2593 69.968 15.4353 67.812 15.6553 65.7C15.7873 64.204 15.8753 62.708 16.0513 61.212C16.1393 60.332 16.0953 59.452 16.4473 58.572C16.4913 58.44 16.4913 58.308 16.4913 58.22V56.944C16.5353 55.976 16.6233 55.008 16.6673 54.04C16.7113 53.512 16.7993 52.984 16.8433 52.456C16.8873 51.884 17.0633 51.356 17.0193 50.784C16.9753 50.652 17.0193 50.52 17.0193 50.344C17.0633 49.86 17.1513 49.42 17.1513 48.936C17.1513 47.924 17.1953 46.912 17.2393 45.9C17.2833 44.624 17.3713 43.392 17.2833 42.116C17.2393 41.456 17.1953 40.752 16.8873 40.18C16.8433 40.004 16.7553 39.828 16.6233 39.74C16.5353 39.652 16.3593 39.652 16.2713 39.652C16.1393 39.696 16.0953 39.828 16.0953 39.96C16.0953 40.048 16.0513 40.136 16.0513 40.224C15.9633 41.588 15.8753 42.996 15.7873 44.36L15.3033 49.332C15.1273 51.136 14.9953 52.984 14.8193 54.788L14.6433 56.284C14.4233 58.264 14.2473 60.244 14.0713 62.224C14.0273 62.356 13.9833 62.488 13.9833 62.62C13.9393 62.796 13.8953 63.016 13.8953 63.236C13.7633 64.248 13.7633 65.304 13.5433 66.316C13.4993 66.492 13.4993 66.668 13.4993 66.844C13.4113 67.724 13.3233 68.604 13.2353 69.484L12.9713 72.168C12.7953 73.664 12.6633 75.16 12.5313 76.7C12.3993 77.932 12.2673 79.164 12.1793 80.396C12.0033 82.244 11.9153 84.092 11.7833 85.94C11.7393 86.688 11.6513 87.48 11.6513 88.228C11.6073 88.976 11.6513 89.768 11.6073 90.516C11.5193 91.792 11.6073 93.068 11.6073 94.344C11.6073 94.916 11.6953 95.4 11.8273 95.928C11.9153 96.5 12.2233 96.852 12.7953 97.028C12.9273 97.028 13.0153 97.116 13.1473 97.16C13.8953 97.424 14.6433 97.204 15.2593 96.544C15.5233 96.28 15.7873 95.928 16.0073 95.62C16.7553 94.564 17.4153 93.42 18.0753 92.32C19.1313 90.56 20.1873 88.8 21.2433 86.996C21.3313 86.864 21.3753 86.732 21.4633 86.556C21.9473 85.764 22.3433 84.884 22.8713 84.092C23.2673 83.52 23.5753 82.86 23.9713 82.244H24.0153C24.0153 82.156 24.0593 82.068 24.1033 81.98C24.3673 81.54 24.6313 81.144 24.8953 80.748C25.0273 80.528 25.1593 80.308 25.2473 80.088C25.4673 79.692 25.5993 79.296 25.8193 78.944C26.2153 78.372 26.6553 77.844 26.9633 77.184C27.0073 77.096 27.0953 77.008 27.1833 76.876V76.92C27.2273 76.832 27.2273 76.7 27.2273 76.612V76.656C27.2713 76.568 27.3593 76.48 27.4473 76.392C27.4473 76.304 27.4913 76.216 27.5353 76.128H27.4913C27.5353 76.084 27.6233 75.996 27.6673 75.908C27.7113 75.688 27.8433 75.512 28.0193 75.38H27.9753C28.1513 75.248 28.2833 75.072 28.3273 74.852C28.4593 74.412 28.7233 74.06 29.0313 73.708C29.0753 73.664 29.1633 73.62 29.2073 73.532C29.2953 73.444 29.3393 73.356 29.3833 73.312H29.2513C29.2953 73.18 29.3393 73.092 29.4273 72.96C29.5593 72.872 29.6913 72.784 29.7793 72.652C29.9113 72.476 29.9993 72.344 30.0873 72.168C30.1313 72.08 30.1753 71.992 30.2633 71.948C30.2193 71.904 30.1753 71.904 30.1313 71.904C30.1753 71.86 30.2193 71.772 30.2633 71.684C30.3073 71.596 30.3513 71.508 30.3953 71.42L30.4393 71.376C30.6153 70.98 30.7913 70.628 31.0553 70.32C31.3193 70.012 31.4953 69.66 31.7153 69.308C31.7593 69.22 31.8033 69.22 31.8913 69.308C31.9353 69.132 32.0233 68.956 32.1113 68.78C32.4633 67.988 32.8593 67.196 33.5193 66.58C33.6073 66.492 33.6513 66.404 33.6953 66.316H33.6073H33.5633C33.6513 66.228 33.6953 66.14 33.7393 66.096C33.7833 66.008 33.8273 65.92 33.8713 65.832L34.0473 65.524C34.0473 65.656 34.0033 65.7 34.0033 65.832L34.0473 65.524V65.48H34.2233C34.2673 65.392 34.2673 65.304 34.3113 65.216L34.4433 64.952C34.4873 64.864 34.5753 64.732 34.6193 64.644L35.0153 64.336C35.0593 64.248 35.1033 64.16 35.1473 64.116H35.0153C35.0153 63.896 35.1473 63.72 35.3233 63.588C35.5433 63.192 35.6753 62.752 36.0713 62.488L36.2033 62.224H36.1593C36.2473 62.136 36.2913 62.048 36.3353 61.916C36.3353 62.048 36.3353 62.136 36.2913 62.224C36.3793 62.092 36.5113 62.004 36.5993 61.872H36.3793C36.4673 61.784 36.5553 61.696 36.5993 61.608L36.9953 60.86C37.1713 60.596 37.3473 60.288 37.5673 60.024C37.7433 59.716 37.9633 59.496 38.1833 59.232C38.4473 59.012 38.5353 58.66 38.6673 58.352C38.7113 58.308 38.7553 58.308 38.7553 58.264L38.9313 58H38.8873C38.9753 57.912 39.0193 57.824 39.0633 57.692V57.824C39.0633 57.78 39.1073 57.736 39.1073 57.692C39.2393 57.472 39.3273 57.252 39.5473 57.164V57.12L39.5913 57.164C39.6793 56.988 39.7673 56.856 39.8113 56.68C39.8553 56.548 39.8553 56.416 39.9433 56.284C40.1633 55.932 40.3833 55.58 40.6473 55.272C40.7793 55.096 40.9113 54.964 40.9993 54.744C41.3513 54.084 41.7033 53.468 42.2313 52.896C42.4073 52.5 42.6273 52.104 42.9793 51.796C43.0233 51.708 43.0233 51.62 43.0673 51.532C43.1113 51.444 43.1993 51.4 43.2433 51.312H43.1993C43.2873 51.224 43.3313 51.136 43.3753 51.048C43.5513 50.74 43.7713 50.476 43.9473 50.168C44.0353 49.904 44.2113 49.684 44.4753 49.596C44.4753 49.464 44.5193 49.376 44.5193 49.288C44.6953 49.112 44.8273 48.892 45.0033 48.672L45.0913 48.452C45.3553 47.968 45.6633 47.484 45.9273 47.044C46.1473 46.736 46.3233 46.472 46.5433 46.208L46.6753 45.944C46.8513 45.636 46.9833 45.328 47.2473 45.108C47.2913 45.02 47.3353 44.932 47.3793 44.844L47.5993 44.448C47.9073 43.92 48.2593 43.436 48.5673 42.952C48.8753 42.424 49.2713 41.984 49.5353 41.456C49.8873 40.928 50.2393 40.356 50.5913 39.784L51.0313 39.212C51.1193 39.036 51.2073 38.904 51.2953 38.772C51.3833 38.596 51.4713 38.42 51.6033 38.288C51.9113 38.024 52.0433 37.716 52.2193 37.408C52.4393 36.924 52.7033 36.484 53.0553 36.132C53.2753 35.912 53.4513 35.648 53.5393 35.384C53.6713 35.12 53.7593 34.9 53.9353 34.636L56.2233 31.072C56.3113 30.94 56.3993 30.852 56.5313 30.764C56.7513 30.588 56.8833 30.368 57.0153 30.148C57.1913 29.752 57.3673 29.312 57.6313 28.96C58.0273 28.388 58.3353 27.772 58.6873 27.2C58.9073 26.936 59.1273 26.628 59.3473 26.32L59.4793 26.056C59.5233 25.924 59.6113 25.792 59.6993 25.704C60.0073 25.22 60.3593 24.736 60.7113 24.296L60.8433 23.988C61.0193 23.68 61.1953 23.372 61.4153 23.064C62.1633 21.876 62.9553 20.688 63.7473 19.5C63.7913 19.412 63.8793 19.324 63.7913 19.236ZM52.3513 34.768H52.4833C52.5273 34.68 52.5273 34.636 52.5273 34.548C52.4833 34.636 52.4393 34.724 52.3513 34.768ZM50.6793 37.364L50.6353 37.408H50.6793V37.364ZM50.5033 37.628C50.5473 37.628 50.5913 37.628 50.6353 37.628V37.452C50.5913 37.54 50.5473 37.584 50.5033 37.628ZM49.3153 39.652C49.3593 39.564 49.3593 39.476 49.3593 39.388C49.3593 39.476 49.3153 39.564 49.3153 39.652ZM48.7873 40.268C48.7433 40.356 48.6993 40.4 48.6553 40.488H48.7433C48.7873 40.4 48.7873 40.312 48.7873 40.268ZM48.1713 41.324H48.1273L48.0833 41.368C48.1273 41.368 48.1273 41.324 48.1713 41.324ZM49.5793 41.456H49.5353L49.5793 41.5V41.456ZM47.3793 44.844C47.3793 44.932 47.4233 44.976 47.4233 45.064C47.4233 44.976 47.4233 44.932 47.3793 44.844ZM45.6193 45.108C45.5753 45.196 45.5313 45.284 45.4873 45.328C45.5313 45.328 45.5753 45.328 45.6193 45.328V45.108ZM44.8713 46.428C44.8713 46.34 44.9153 46.296 44.9153 46.208L44.7833 46.428H44.8273H44.8713ZM42.4953 49.948C42.4513 50.036 42.3633 50.124 42.3193 50.168H42.4513C42.4513 50.08 42.4513 50.036 42.4953 49.948ZM42.2753 50.388C42.3193 50.344 42.3193 50.256 42.3193 50.168C42.3193 50.256 42.2753 50.344 42.2313 50.388H42.2753ZM41.7473 51.048C41.7033 51.136 41.7033 51.224 41.6593 51.268H41.7033C41.7473 51.18 41.7473 51.136 41.7473 51.048ZM43.2433 51.312C43.2433 51.4 43.1993 51.444 43.1993 51.532C43.2433 51.444 43.2873 51.4 43.3753 51.312V51.048C43.3753 51.136 43.3753 51.224 43.3313 51.312H43.2433ZM43.1113 51.796C43.1553 51.708 43.1553 51.62 43.1993 51.532H43.0673C43.1113 51.62 43.1113 51.708 43.1113 51.796ZM41.1753 51.928C41.1313 52.016 41.0873 52.06 41.0433 52.148H41.1313C41.1313 52.06 41.1753 51.972 41.1753 51.928ZM40.4713 53.028C40.4273 53.116 40.3833 53.204 40.3833 53.248H40.4273C40.4273 53.16 40.4713 53.116 40.4713 53.028ZM38.6233 55.932C38.5353 56.02 38.4913 56.064 38.4473 56.152C38.4913 56.152 38.4913 56.108 38.5353 56.108C38.5793 56.064 38.5793 55.976 38.6233 55.932ZM38.4033 56.372C38.4033 56.284 38.4473 56.196 38.4473 56.152C38.3593 56.284 38.2713 56.416 38.1833 56.504C38.2273 56.46 38.3153 56.416 38.4033 56.372ZM38.0513 56.768C37.9633 56.856 37.9193 56.944 37.8753 57.032C37.9193 56.988 37.9633 56.988 38.0073 56.988C38.0073 56.9 38.0073 56.856 38.0513 56.768ZM37.8313 57.208C37.8313 57.164 37.8753 57.076 37.8753 56.988C37.8313 57.076 37.7873 57.164 37.7873 57.252C37.7873 57.252 37.7873 57.208 37.8313 57.208ZM39.0633 58V57.824C39.0633 57.912 39.0633 57.956 39.0193 58H39.0633ZM38.8873 58.22C38.9313 58.132 38.9753 58.088 39.0193 58H38.9313C38.9313 58.088 38.8873 58.132 38.8873 58.22ZM37.1273 58.176C37.1273 58.176 37.1713 58.176 37.1713 58.132L37.1273 58.176ZM37.1273 58.352V58.176C37.0833 58.264 37.0833 58.308 37.0393 58.352H37.1273ZM35.8953 60.156L36.0273 59.892C35.9833 59.98 35.9393 60.068 35.8513 60.112L35.8953 60.156ZM35.8513 60.2C35.8073 60.244 35.7633 60.288 35.7193 60.376C35.7633 60.376 35.8073 60.332 35.8513 60.332V60.2ZM35.6753 60.596C35.6753 60.508 35.7193 60.42 35.7193 60.376C35.6753 60.42 35.6313 60.508 35.6313 60.596H35.6753ZM36.1593 62.488C36.2033 62.4 36.2473 62.312 36.2913 62.224H36.2033C36.1593 62.312 36.1593 62.4 36.1593 62.488ZM34.4433 62.356C34.3993 62.444 34.3553 62.532 34.2673 62.62H34.3113C34.3553 62.532 34.3993 62.444 34.4433 62.4V62.356ZM34.2233 62.84L34.3113 62.62C34.2233 62.708 34.1793 62.796 34.1353 62.84H34.2233ZM33.5633 63.72V63.764L33.6073 63.72H33.5633ZM33.5633 63.764C33.5193 63.808 33.4753 63.896 33.4313 63.984H33.5193C33.5633 63.896 33.5633 63.852 33.5633 63.764ZM33.4313 63.984C33.3873 64.072 33.3433 64.116 33.2553 64.204H33.3873C33.3873 64.116 33.4313 64.028 33.4313 63.984ZM15.7433 66.624C15.7873 65.876 15.8313 65.172 15.9193 64.424H15.8753C15.8313 65.172 15.7433 65.92 15.6993 66.624H15.7433ZM32.6833 65.084L32.7273 65.128L32.8593 64.864C32.8153 64.952 32.7713 64.996 32.6833 65.084ZM34.5753 64.952H34.4433C34.4433 65.04 34.4433 65.128 34.4433 65.216L34.5753 64.952ZM32.5513 65.348C32.5953 65.26 32.6833 65.216 32.7273 65.128C32.6393 65.172 32.5953 65.26 32.5513 65.348ZM34.2673 65.48C34.3553 65.392 34.3993 65.304 34.4433 65.216H34.3113C34.3113 65.304 34.3113 65.392 34.2673 65.48ZM33.8713 66.096L34.0033 65.832C33.9593 65.832 33.9153 65.832 33.8713 65.832V66.096ZM33.6953 66.316C33.7393 66.228 33.8273 66.184 33.8713 66.096H33.7393C33.7393 66.14 33.7393 66.228 33.6953 66.316ZM31.6713 66.712C31.7153 66.712 31.7153 66.712 31.7153 66.712L31.8473 66.492C31.8033 66.536 31.7593 66.624 31.6713 66.712ZM31.7153 66.712C31.6273 66.8 31.5833 66.888 31.5393 66.976L31.7153 66.712ZM30.5273 68.604L30.7033 68.34C30.6153 68.428 30.5713 68.516 30.5273 68.604ZM30.4833 68.824C30.5273 68.736 30.5273 68.692 30.5273 68.604C30.5273 68.648 30.5273 68.736 30.4833 68.824ZM29.6913 69.968C29.6033 70.012 29.5593 70.1 29.5153 70.144L29.6913 69.968ZM29.5153 70.144C29.4713 70.232 29.4273 70.364 29.3833 70.452L29.5153 70.144ZM28.6793 71.552L28.8113 71.332C28.7673 71.376 28.7233 71.464 28.6353 71.552C28.5913 71.64 28.5473 71.728 28.5033 71.816L28.6793 71.552ZM30.3953 71.684C30.3513 71.684 30.3073 71.684 30.2633 71.684V71.86C30.3073 71.816 30.3513 71.772 30.3953 71.684ZM30.2633 71.948V71.86C30.2633 71.904 30.2193 71.904 30.2193 71.904L30.2633 71.948ZM28.2393 72.3C28.2833 72.256 28.3273 72.168 28.3713 72.08C28.3273 72.124 28.2833 72.212 28.2393 72.3ZM28.2393 72.3L28.0633 72.564C28.1513 72.476 28.1953 72.388 28.2393 72.3ZM28.0193 72.74L28.0633 72.564C28.0193 72.652 27.9753 72.74 27.9313 72.784C27.9313 72.784 27.9753 72.74 28.0193 72.74ZM29.4273 72.96C29.3833 73.092 29.3833 73.136 29.3833 73.268C29.3833 73.18 29.4273 73.092 29.4273 72.96ZM21.9473 82.728L21.9913 82.772L21.9473 82.728ZM17.8993 89.548C17.8993 89.372 17.9873 89.24 18.1633 89.108C18.1633 89.284 18.0753 89.416 17.8993 89.548ZM18.6033 90.428C18.7353 90.12 18.9113 89.856 19.1313 89.592C19.0433 89.944 18.8673 90.208 18.6033 90.428ZM55.2931 63.588C55.0291 63.368 54.9851 63.368 54.7211 63.588C54.6771 63.632 54.6331 63.676 54.5451 63.72C53.7971 64.336 53.1371 65.04 52.4331 65.7C51.6851 66.404 50.9371 67.108 50.2331 67.856C49.5731 68.472 48.9131 69.132 48.2531 69.792C47.5051 70.54 46.7571 71.332 46.0531 72.08L45.6571 72.388C45.5691 72.476 45.5691 72.476 45.3491 72.3H45.3931C45.3931 72.036 45.4371 71.772 45.5691 71.552C45.6571 70.936 45.8331 70.364 46.1411 69.792C46.1411 69.572 46.2291 69.352 46.3171 69.176L46.9771 67.372C47.0211 67.24 47.0651 67.108 47.1971 67.02C47.2411 66.976 47.2411 66.888 47.2851 66.844C47.3291 66.668 47.3731 66.492 47.5051 66.36H47.4611C47.5051 66.228 47.5051 66.14 47.5931 66.052C47.5931 65.876 47.6811 65.7 47.7691 65.568C47.8571 65.304 47.9451 65.084 48.0771 64.864V64.908C48.0771 64.82 48.1211 64.776 48.1651 64.732C48.1651 64.468 48.2971 64.248 48.4731 64.028C48.4731 63.72 48.6491 63.412 48.8251 63.192C48.8691 63.104 48.8691 63.016 48.9131 62.884C48.9571 62.84 49.0011 62.752 49.0011 62.708L48.7811 62.576L48.8251 62.4C48.9131 62.18 49.0011 62.004 49.0451 61.784V61.96C49.1771 61.828 49.2211 61.696 49.2211 61.564L49.0891 61.74C49.1331 61.608 49.1771 61.52 49.2651 61.388C49.5731 60.86 49.7491 60.244 49.9691 59.628C50.1011 59.188 50.0131 58.88 49.6171 58.616C49.5291 58.528 49.4411 58.484 49.3091 58.396C49.0891 58.264 48.9571 58.264 48.7371 58.44C48.5611 58.572 48.3851 58.748 48.2531 58.924C47.5051 59.628 46.8891 60.508 46.1851 61.256V61.3L46.0091 61.212C45.7011 61.696 45.3491 62.136 45.0411 62.62C44.8211 62.884 44.7771 62.884 44.5131 62.796C44.2491 62.708 43.9851 62.62 43.7211 62.62C42.7531 62.576 41.9611 62.884 41.1691 63.412C40.4651 63.896 39.8491 64.556 39.3211 65.26C39.1451 65.524 38.9691 65.832 38.7931 66.184C38.6611 66.492 38.5731 66.8 38.5291 67.196C38.4851 67.372 38.4851 67.548 38.5731 67.68C38.7931 68.164 39.1011 68.56 39.6291 68.736C39.8931 68.824 40.1131 68.824 40.3771 68.78C40.7291 68.692 41.0811 68.56 41.3891 68.384C42.7971 67.592 43.9851 66.536 44.9971 65.304C45.0411 65.26 45.0411 65.216 45.0851 65.216C45.0411 65.216 45.0411 65.216 44.9971 65.216L45.0851 65.084C45.1291 65.084 45.1731 65.04 45.1731 64.996C45.2611 64.908 45.3051 64.82 45.3491 64.732H45.3931C45.3931 64.688 45.4371 64.644 45.4811 64.644V64.732C45.5251 64.688 45.5251 64.644 45.5691 64.644V64.6C45.6571 64.6 45.7891 64.6 45.7891 64.732V65.26C45.7891 65.436 45.7891 65.568 45.9651 65.612C46.0091 65.656 46.0531 65.7 46.0091 65.788C46.0091 65.876 45.9651 66.008 45.9211 66.096C45.7451 66.58 45.5691 67.02 45.4371 67.504C44.9531 68.824 44.4251 70.144 44.1171 71.508C44.0291 71.86 43.9851 72.168 43.9851 72.52C43.9851 72.916 44.1171 73.18 44.3811 73.4L44.6011 73.532C44.9531 73.84 45.3491 73.84 45.7451 73.664C45.9651 73.532 46.1851 73.4 46.3611 73.224C47.1091 72.564 47.8571 71.86 48.5171 71.068C49.0011 70.584 49.4411 70.1 49.8811 69.572C50.6291 68.78 51.3771 67.988 52.0811 67.196C52.2131 67.108 52.3451 67.02 52.3891 66.844C52.1691 66.932 52.0371 67.108 51.9051 67.284C51.7731 67.372 51.6851 67.548 51.5091 67.592C51.4651 67.636 51.4651 67.68 51.4211 67.68C51.3771 67.724 51.3771 67.768 51.3331 67.768C51.3331 67.724 51.3771 67.724 51.4211 67.68C51.4211 67.636 51.4651 67.592 51.5091 67.592C51.5531 67.504 51.5971 67.416 51.6411 67.372C52.3011 66.712 52.9611 66.096 53.5771 65.436L53.8411 65.304C53.8411 65.26 53.8851 65.216 53.9291 65.216C53.9291 65.172 53.9731 65.128 54.0171 65.128L54.1051 64.996C54.1491 64.996 54.1931 64.952 54.1931 64.908V64.996C54.3691 64.952 54.4571 64.864 54.5451 64.776L55.3371 64.028C55.5131 63.852 55.5131 63.764 55.2931 63.588ZM48.4291 59.276C48.4291 59.232 48.4731 59.232 48.4731 59.188C48.5171 59.144 48.5171 59.144 48.5611 59.188L48.5171 59.232C48.5171 59.232 48.4731 59.276 48.4291 59.276C48.3851 59.408 48.2971 59.496 48.1651 59.54C48.2531 59.452 48.2971 59.364 48.4291 59.276ZM47.2851 60.596C47.2851 60.552 47.3291 60.508 47.3731 60.464C47.4171 60.288 47.5491 60.156 47.6811 60.068C47.7691 59.892 47.9011 59.76 48.0771 59.672C48.1211 59.628 48.1211 59.584 48.1651 59.584C48.1651 59.584 48.1651 59.628 48.1651 59.672H48.0771C48.0771 59.716 48.0771 59.76 48.1211 59.804C48.1211 59.804 48.1651 59.76 48.2091 59.76L48.1211 59.892C48.0771 60.024 47.9891 60.112 47.8571 60.156C47.8131 60.2 47.8131 60.244 47.7691 60.288V60.2C47.7251 60.244 47.6811 60.288 47.6811 60.332C47.6371 60.42 47.5491 60.508 47.4171 60.508L47.3291 60.64C47.2851 60.772 47.1531 60.816 47.0651 60.86L47.2851 60.596ZM47.7691 60.2C47.8131 60.156 47.8131 60.156 47.8571 60.156C47.8131 60.156 47.8131 60.156 47.7691 60.112V60.2ZM45.9651 63.588C45.9651 63.588 45.9211 63.632 45.8771 63.588V63.5C45.9651 63.412 46.0091 63.28 46.0971 63.192C46.0971 63.192 46.1411 63.192 46.1411 63.148L46.3171 62.972C46.3611 62.928 46.3611 62.84 46.4051 62.752L46.5371 62.62V62.664C46.5811 62.62 46.5811 62.576 46.5811 62.576L46.6691 62.444C46.7571 62.4 46.8451 62.356 46.8891 62.268C46.8451 62.268 46.8451 62.268 46.8011 62.312L46.9331 62.18H46.9771C46.8011 62.488 46.5811 62.752 46.3611 63.016C46.2731 63.236 46.1411 63.412 45.9651 63.588ZM46.8891 62.268C46.8891 62.224 46.9331 62.224 46.9331 62.18C46.8891 62.224 46.8891 62.224 46.8891 62.268ZM46.4051 64.908C46.4051 64.952 46.3611 64.996 46.3171 65.04C46.1851 65.04 46.2291 64.952 46.2291 64.908C46.1851 64.732 46.1851 64.556 46.1411 64.38C46.0531 64.072 46.0531 63.852 46.1851 63.632L47.1971 62.224C47.4611 62.4 46.5371 64.644 46.4051 64.908ZM48.5611 63.06C48.5611 62.884 48.6051 62.752 48.7371 62.62C48.7371 62.796 48.6491 62.928 48.5611 63.06ZM49.0451 62.708H49.0011C49.0011 62.752 49.0011 62.84 49.0451 62.884V62.708ZM40.7731 67.24C40.5091 67.46 40.2011 67.592 39.9371 67.724C39.7611 67.768 39.6291 67.68 39.6731 67.504C39.7611 67.064 39.8491 66.58 40.1131 66.184C40.3771 65.744 40.6411 65.348 41.0371 65.04C41.1251 64.908 41.2571 64.776 41.2571 64.6C41.0811 64.688 40.9491 64.864 40.8171 64.996C40.7291 65.084 40.6411 65.216 40.4651 65.304C40.4211 65.48 40.3331 65.612 40.2011 65.656C40.2451 65.524 40.3331 65.348 40.4651 65.304C40.7731 64.732 41.2131 64.336 41.6971 64.028C41.7851 63.94 41.8731 63.896 42.0051 63.852C41.9611 63.984 41.8731 64.028 41.7411 64.072C41.6531 64.248 41.4331 64.336 41.3451 64.512C41.5211 64.512 41.6531 64.38 41.7851 64.292C42.1371 64.028 42.5331 63.764 42.9291 63.588C43.2811 63.412 43.6771 63.324 44.0291 63.324H44.2491C44.3371 63.368 44.3811 63.456 44.3371 63.5C44.2051 63.676 44.1171 63.852 43.9851 63.984L43.1491 65.04C42.4451 65.832 41.6531 66.58 40.7731 67.24ZM48.4291 63.456L48.3851 63.5C48.3411 63.5 48.3411 63.456 48.3411 63.412C48.3851 63.368 48.4291 63.368 48.4291 63.324V63.456ZM40.5971 64.424H40.6851C40.6411 64.38 40.5971 64.38 40.5971 64.336C40.7291 64.072 40.9491 63.852 41.2131 63.764L41.3451 63.676C41.3891 63.588 41.4771 63.588 41.5211 63.588C41.4771 63.632 41.4331 63.676 41.3451 63.676C41.3011 63.72 41.3011 63.764 41.2571 63.764C41.1691 64.072 40.9051 64.248 40.6851 64.424C40.6411 64.468 40.5971 64.512 40.5971 64.512V64.424ZM44.9971 63.676C44.9531 63.676 44.9091 63.72 44.9091 63.764H44.8211C44.8211 63.588 44.8651 63.588 44.9971 63.676ZM54.3251 64.204C54.4571 64.072 54.5891 63.896 54.8091 63.764C54.6331 64.072 54.6331 64.072 54.3251 64.204ZM42.7971 66.272C42.6651 66.316 42.5331 66.448 42.4011 66.448C42.6651 66.052 43.0171 65.788 43.3251 65.436C43.5011 65.216 43.6771 64.996 43.8971 64.776C43.9411 64.776 43.9851 64.732 43.9851 64.688C44.0731 64.556 44.1611 64.424 44.2931 64.336C44.3371 64.292 44.3811 64.248 44.4251 64.248C44.4691 64.072 44.5571 63.94 44.6891 63.852C44.6891 63.94 44.6891 63.984 44.6891 64.072H44.8211C44.7771 64.072 44.7331 64.116 44.6891 64.116V64.072C44.6451 64.072 44.6451 64.116 44.6011 64.16H44.6891C44.6891 64.248 44.6011 64.336 44.5131 64.424C44.5131 64.38 44.5131 64.292 44.5131 64.248H44.4251C44.3811 64.292 44.3811 64.336 44.3371 64.336C44.3371 64.424 44.3371 64.468 44.3371 64.512H44.4251C44.3811 64.556 44.3371 64.6 44.3371 64.6V64.512C44.2931 64.556 44.2491 64.6 44.2051 64.6C44.2051 64.644 44.1611 64.688 44.1171 64.732C44.1611 64.732 44.2051 64.732 44.2051 64.732V64.644C44.2491 64.644 44.2931 64.644 44.2931 64.644L44.2051 64.732C44.2051 64.82 44.1171 64.952 44.0291 64.996C43.9851 65.04 43.9851 65.084 43.9411 65.084V64.996C43.8971 65.04 43.8531 65.084 43.8531 65.128C43.8531 65.128 43.8971 65.128 43.9411 65.128L43.8531 65.216C43.8091 65.26 43.8091 65.304 43.7651 65.304V65.216C43.7211 65.216 43.6771 65.26 43.6331 65.304H43.6771H43.7211C43.6771 65.524 43.5451 65.656 43.3691 65.788C43.3251 65.788 43.2811 65.832 43.2811 65.876V65.788C43.2371 65.788 43.1931 65.832 43.1491 65.876H43.2371C43.2371 65.92 43.1931 65.92 43.1931 65.964C43.1491 65.92 43.1491 65.92 43.1491 65.876C43.1491 65.92 43.1051 65.92 43.0611 65.964H43.1491C43.1491 66.008 43.1051 66.008 43.0611 66.052C43.0171 66.096 43.0171 66.14 42.9731 66.14V66.052C42.9291 66.096 42.8851 66.14 42.8851 66.184H42.9731C42.9291 66.184 42.9291 66.228 42.8851 66.228V66.184C42.8411 66.184 42.7971 66.228 42.7971 66.272ZM45.4371 64.336C44.8651 65.04 44.2931 65.744 43.6771 66.36C43.5451 66.492 43.4571 66.58 43.2811 66.668L43.1931 66.756C43.1491 66.844 43.0611 66.888 42.9731 66.932C43.0171 66.8 43.0611 66.756 43.1491 66.712C43.1931 66.668 43.2371 66.668 43.2371 66.624L43.4571 66.36C44.0731 65.7 44.6891 65.04 45.2171 64.336L45.3931 64.16C45.3931 64.116 45.4811 64.116 45.4811 64.116C45.5251 64.16 45.5251 64.204 45.4811 64.248C45.4811 64.292 45.4811 64.292 45.4371 64.336ZM47.9891 64.424C47.9891 64.336 47.9891 64.248 48.0771 64.16C48.0331 64.248 48.0331 64.336 47.9891 64.424ZM40.5531 64.336C40.5531 64.38 40.5531 64.38 40.5531 64.424H40.5091C40.5091 64.38 40.5531 64.38 40.5531 64.336ZM40.4651 64.424C40.4651 64.468 40.4651 64.512 40.4651 64.512H40.5531C40.5531 64.556 40.5091 64.6 40.4651 64.6C40.4651 64.6 40.4651 64.556 40.4651 64.512H40.3771C40.4211 64.512 40.4651 64.468 40.4651 64.424ZM40.3771 64.556V64.6H40.2891C40.3331 64.6 40.3331 64.556 40.3771 64.556ZM40.2011 64.732C40.2451 64.688 40.2451 64.644 40.2891 64.644C40.2891 64.644 40.2891 64.688 40.2891 64.732H40.3771C40.3771 64.688 40.3771 64.644 40.3771 64.644H40.4651C40.4211 64.644 40.4211 64.688 40.3771 64.732L40.2891 64.82C40.2891 64.776 40.2891 64.776 40.2891 64.732H40.2011C40.2011 64.776 40.2011 64.776 40.2011 64.82H40.1131C40.1131 64.776 40.1571 64.732 40.2011 64.732ZM44.0291 64.82C44.0731 64.776 44.1171 64.776 44.1171 64.732H44.0731C44.0291 64.776 44.0291 64.776 44.0291 64.82ZM43.9851 64.864C43.9411 64.908 43.9411 64.952 43.9411 64.996H44.0291C44.0291 64.952 44.0291 64.864 44.0291 64.82L43.9851 64.864ZM54.1051 65.084C54.1491 65.084 54.1491 65.04 54.1931 64.996C54.1491 64.996 54.1491 64.996 54.1051 64.996V65.084ZM53.0491 65.568C52.9171 65.7 52.7851 65.788 52.6091 65.832C52.8731 65.524 53.1371 65.216 53.5331 65.04L53.0491 65.568ZM43.7651 65.216C43.7651 65.216 43.8091 65.216 43.8531 65.216V65.128C43.8091 65.128 43.7651 65.172 43.7651 65.216ZM45.0851 65.172C45.1291 65.172 45.1731 65.128 45.1731 65.128C45.1731 65.128 45.1291 65.128 45.0851 65.128V65.172ZM54.1051 65.128C54.0611 65.128 54.0611 65.128 54.0171 65.128V65.172C54.0611 65.172 54.0611 65.128 54.1051 65.128ZM54.0171 65.216C53.9731 65.216 53.9291 65.216 53.9291 65.216V65.304C53.9291 65.26 53.9731 65.216 54.0171 65.216ZM47.3731 65.744C47.4171 65.568 47.4611 65.436 47.5931 65.304C47.5491 65.48 47.5051 65.612 47.3731 65.744ZM53.4451 65.744C53.6651 65.656 53.7971 65.524 53.9291 65.304C53.8851 65.304 53.8411 65.304 53.8411 65.304L53.4451 65.744ZM47.8131 65.568H47.7691V65.612C47.7691 65.612 47.7691 65.568 47.8131 65.568ZM40.2011 65.7C40.1571 65.788 40.1131 65.876 39.9811 65.92C40.0691 65.832 40.1131 65.744 40.2011 65.7ZM53.3571 65.876C53.3571 65.832 53.4011 65.832 53.4451 65.788C53.4011 65.788 53.3571 65.832 53.3571 65.876ZM53.3131 65.876C53.0051 66.14 52.7411 66.404 52.4771 66.712C52.8731 66.536 53.1371 66.228 53.3131 65.876ZM42.9731 66.052C43.0171 66.052 43.0171 66.052 43.0611 66.052V65.964C43.0171 66.008 43.0171 66.052 42.9731 66.052ZM51.1571 67.284C51.3771 66.976 51.6851 66.712 51.9931 66.448C51.8171 66.844 51.5091 67.108 51.1571 67.284ZM52.4771 66.756V66.712C52.4331 66.756 52.3891 66.8 52.3891 66.844C52.4331 66.8 52.4331 66.756 52.4771 66.756ZM42.6211 67.196C42.6651 67.108 42.7531 67.064 42.8411 67.064C42.7971 67.108 42.7091 67.196 42.6211 67.196ZM50.9371 67.504C50.8051 67.812 50.5851 68.032 50.2771 68.164C50.4531 67.9 50.6731 67.68 50.9371 67.504ZM46.6251 67.68V67.636C46.6691 67.636 46.6691 67.68 46.6251 67.68ZM51.1571 67.988L51.0691 68.076C51.0251 68.12 50.9811 68.164 50.9371 68.208L50.8491 68.296C50.8491 68.34 50.8051 68.34 50.7611 68.384C50.4531 68.868 50.0571 69.264 49.6171 69.616C49.6171 69.572 49.6171 69.528 49.6611 69.484C49.9691 69.088 50.3211 68.692 50.7611 68.34L50.8491 68.252C50.8491 68.208 50.8931 68.208 50.9371 68.164C50.9811 68.12 50.9811 68.076 51.0251 68.076L51.1131 67.988C51.1571 67.944 51.1571 67.9 51.2451 67.9C51.2011 67.944 51.2011 67.988 51.1571 67.988ZM50.1451 68.296C50.1451 68.34 50.1451 68.34 50.1011 68.34L50.1451 68.296ZM49.4851 69.044C49.1331 69.44 48.7811 69.88 48.3851 70.188C48.4291 70.1 48.4291 70.012 48.5171 69.968C48.8691 69.572 49.1771 69.176 49.5731 68.868C49.5731 68.956 49.5291 69 49.4851 69.044ZM46.1411 68.956C46.1411 69.132 46.0531 69.264 45.9651 69.396C46.0091 69.22 46.0091 69.088 46.1411 68.956ZM49.5291 69.704C49.5291 69.66 49.5291 69.66 49.5731 69.616C49.5731 69.66 49.5291 69.66 49.5291 69.704ZM49.3971 69.792L49.4851 69.704C49.4851 69.748 49.4411 69.792 49.3971 69.792ZM49.3091 69.924C49.0891 70.276 48.8251 70.584 48.4731 70.848C48.6491 70.54 48.9571 70.144 49.3091 69.924C49.3531 69.88 49.3531 69.836 49.3971 69.836C49.3971 69.88 49.3531 69.88 49.3091 69.924ZM59.9217 57.824C60.1417 57.604 60.3177 57.34 60.4937 57.076C60.7137 56.592 61.0217 56.152 61.3297 55.712C61.5937 55.316 61.9457 54.964 62.3417 54.744C62.3857 54.7 62.3857 54.656 62.5177 54.524C62.2977 54.568 62.2097 54.612 62.0337 54.656C61.9017 54.788 61.7697 54.92 61.6817 55.052C61.5497 55.14 61.5057 55.184 61.4177 55.36C61.4177 55.14 61.5497 55.096 61.6377 55.052C61.7257 54.832 61.8577 54.744 62.0337 54.656C62.1657 54.524 62.2537 54.392 62.3857 54.216C62.2537 54.128 62.1217 54.04 61.9897 53.908C61.8137 53.776 61.6377 53.776 61.4617 53.908C61.2857 54.04 61.1097 54.172 60.9777 54.348C60.4057 55.008 59.8337 55.712 59.3937 56.46C59.3057 56.636 59.2177 56.812 59.1737 57.032C59.0857 57.296 59.2617 57.472 59.3937 57.692C59.5257 57.868 59.7017 57.868 59.9217 57.824ZM61.5057 54.26C61.5497 54.172 61.5937 54.172 61.6817 54.216H61.7257C61.7257 54.348 61.5937 54.436 61.5057 54.392H61.4617C61.4617 54.348 61.4617 54.304 61.5057 54.26ZM65.6417 62.84C65.3777 62.708 65.2017 62.752 64.9817 62.928L63.1337 64.248C62.1217 65.04 61.0657 65.788 60.0537 66.536C59.3937 67.064 58.6897 67.504 57.9857 68.032C57.0617 68.692 56.0937 69.396 55.1697 70.1C54.7737 70.364 54.4217 70.672 54.0257 70.936L53.1897 71.464C53.1457 71.508 53.0577 71.552 52.9697 71.596C52.8817 71.596 52.7497 71.552 52.7497 71.464C52.7497 71.288 52.7497 71.112 52.7937 70.936C53.0137 70.364 53.1457 69.748 53.5417 69.22C53.6297 69.176 53.6297 69.132 53.6297 69.088C53.6737 68.736 53.8497 68.472 54.0697 68.164C54.1137 67.944 54.2457 67.68 54.4217 67.504C54.4217 67.24 54.5977 67.02 54.7297 66.844C54.8177 66.536 54.9497 66.228 55.2137 66.008H55.3017C55.2577 66.008 55.2577 66.008 55.2137 65.964C55.2137 65.92 55.2577 65.876 55.3017 65.788C55.3897 65.656 55.4337 65.524 55.4777 65.392C55.6977 65.04 55.9177 64.688 56.0497 64.336C56.1817 64.16 56.2697 64.028 56.4457 63.896C56.4457 63.808 56.4897 63.764 56.5777 63.676H56.4897C56.4897 63.632 56.5337 63.544 56.5777 63.5C56.7537 63.148 56.9297 62.796 57.1497 62.444C57.4577 61.916 57.7217 61.388 57.8977 60.86C58.1177 60.332 58.0297 60.156 57.5457 59.892C57.3697 59.936 57.2817 60.068 57.1937 60.156C56.4897 61.036 55.8737 61.96 55.2577 62.84C54.6857 63.764 54.1577 64.688 53.6297 65.656C53.1017 66.536 52.5737 67.46 52.1777 68.384C52.0897 68.692 51.9577 68.956 51.7817 69.22C51.4737 69.836 51.3857 70.54 51.2977 71.2C51.2097 71.728 51.3857 72.124 51.7817 72.388L52.0017 72.52C52.2217 72.74 52.4857 72.784 52.8377 72.74C53.1457 72.696 53.3657 72.564 53.6297 72.432C54.2017 72.124 54.7297 71.772 55.2577 71.376C56.9737 70.1 58.6457 68.78 60.3617 67.504C61.3297 66.712 62.3857 65.92 63.3977 65.128C64.1457 64.556 64.8937 63.984 65.5977 63.412C65.6417 63.368 65.6857 63.324 65.6857 63.28C65.7297 63.148 65.7737 63.06 65.7737 62.928L65.6417 62.84ZM54.4217 66.756C54.4217 66.844 54.3777 66.888 54.3777 66.976C54.3777 66.888 54.4217 66.8 54.4217 66.756ZM53.8937 67.768C53.8937 67.812 53.9377 67.812 53.9377 67.812C53.8937 67.856 53.8937 67.856 53.8497 67.856C53.8497 67.812 53.8937 67.812 53.8937 67.768ZM53.4097 68.736C53.4977 68.648 53.4977 68.604 53.5417 68.516C53.5857 68.428 53.5857 68.34 53.6297 68.252V68.296C53.5857 68.34 53.5857 68.428 53.5417 68.516C53.4977 68.604 53.4977 68.692 53.4097 68.78V68.736ZM53.1897 69.308C53.1897 69.264 53.1897 69.264 53.1897 69.264V69.308ZM82.9945 25.528C82.8185 25.484 82.7305 25.44 82.6425 25.352C82.4665 25.22 82.4665 25.22 82.2905 25.44C82.2025 25.484 82.2025 25.484 82.1585 25.44C82.1145 25.352 82.0705 25.352 81.9825 25.396C81.8505 25.528 81.7625 25.704 81.7185 25.88C81.6745 26.188 81.5865 26.452 81.5865 26.76C81.5865 26.892 81.5865 27.068 81.5425 27.2H81.4545C81.4545 27.42 81.4105 27.684 81.3225 27.904C81.2785 27.948 81.2785 28.036 81.2785 28.08C81.2345 28.3 81.1905 28.52 81.1025 28.74C81.1025 28.828 81.0585 28.916 81.0145 29.004C81.0145 29.092 80.9705 29.136 80.9705 29.224C80.9265 29.4 80.8385 29.62 80.7505 29.796L80.4865 30.544C80.4425 30.632 80.4425 30.764 80.3985 30.852C80.3105 31.204 80.1345 31.512 80.0465 31.82C80.0465 31.952 80.0025 32.04 79.9145 32.084C79.7825 32.216 79.7385 32.392 79.6945 32.568C79.6945 32.612 79.6945 32.7 79.6945 32.744L79.4305 33.36C79.3865 33.492 79.3425 33.624 79.2545 33.756C79.2105 33.888 79.2105 34.02 79.1665 34.108C79.1225 34.24 79.0785 34.328 78.9465 34.416C78.9465 34.46 78.9025 34.504 78.8585 34.548C78.8145 34.724 78.7265 34.9 78.6385 35.076C78.6385 35.164 78.5945 35.208 78.5945 35.252C78.5065 35.34 78.4625 35.472 78.4185 35.604C78.3305 35.868 78.1985 36.132 78.0665 36.396L77.8465 36.88C77.8025 37.056 77.7145 37.232 77.6265 37.408C77.5825 37.496 77.5385 37.584 77.5385 37.716C77.5385 37.804 77.4945 37.848 77.4505 37.892L77.3625 38.024C77.3185 38.112 77.3185 38.156 77.2745 38.2C77.1425 38.464 77.0545 38.684 76.9665 38.904C76.9225 38.948 76.9225 38.992 76.9225 38.992C76.9225 39.124 76.8785 39.168 76.8345 39.256L76.7025 39.388C76.5705 39.696 76.4385 40.004 76.2625 40.312C76.2625 40.356 76.2185 40.4 76.1745 40.488L76.0425 40.752C75.9545 40.972 75.8225 41.192 75.7785 41.412C75.7785 41.544 75.6905 41.676 75.6025 41.72V41.896C75.6025 41.94 75.5585 41.984 75.5145 42.028L75.3825 42.16C75.2945 42.38 75.1625 42.6 75.0745 42.864C75.0745 42.952 75.0305 42.996 74.9865 43.084C74.8985 43.128 74.8545 43.216 74.8545 43.348C74.8545 43.436 74.8105 43.48 74.7225 43.524C74.6785 43.568 74.6785 43.612 74.6345 43.656V43.744C74.6785 43.7 74.7225 43.656 74.7225 43.612C74.7225 43.744 74.6785 43.876 74.5465 43.964C74.5025 43.964 74.4585 44.008 74.4585 44.052C74.3705 44.184 74.2825 44.316 74.2385 44.448V44.624C74.2385 44.668 74.1945 44.712 74.1505 44.756C74.0185 44.844 73.9305 45.02 73.8865 45.152C73.8865 45.196 73.8425 45.196 73.8425 45.196C73.7545 45.416 73.6225 45.592 73.5345 45.812C73.5345 45.9 73.5785 45.944 73.5345 46.032C73.4905 46.12 73.4905 46.164 73.4025 46.252C73.4025 46.252 73.3585 46.208 73.3145 46.208C73.2705 46.252 73.2265 46.34 73.2265 46.428C73.1825 46.472 73.1825 46.56 73.1385 46.604C73.0505 46.692 73.0065 46.824 72.9625 46.912C72.9185 47 72.8745 47.044 72.8305 47.088L72.6985 47.352C72.6985 47.396 72.6545 47.484 72.6105 47.528C72.4785 47.748 72.3465 47.968 72.2145 48.232C72.1705 48.276 72.1265 48.32 72.1265 48.364C72.0385 48.628 71.9065 48.804 71.8185 49.024C71.6865 49.288 71.5105 49.508 71.3785 49.772L71.2905 49.904C71.2465 50.036 71.2025 50.124 71.1145 50.256C71.0705 50.3 71.0265 50.344 71.0265 50.432C71.0705 50.432 71.0705 50.432 71.1145 50.476L70.8945 50.74C70.7625 50.872 70.6745 51.004 70.5865 51.18C70.5425 51.312 70.4545 51.4 70.4105 51.488C70.2785 51.664 70.1905 51.796 70.1465 51.972C70.1025 52.06 70.0585 52.148 70.0145 52.192C69.9265 52.28 69.8825 52.368 69.8385 52.456C69.7945 52.588 69.7505 52.676 69.7065 52.764L69.4865 53.028C69.4425 53.116 69.3985 53.16 69.3985 53.204C69.3545 53.38 69.2225 53.512 69.1345 53.644L69.0025 53.864C68.9585 54.04 68.8265 54.172 68.7385 54.304L68.5625 54.612C68.5625 54.612 68.5185 54.656 68.5185 54.7C68.5625 54.7 68.6065 54.7 68.6065 54.656C68.6505 54.568 68.7385 54.524 68.7825 54.436C68.7385 54.612 68.6505 54.744 68.5625 54.92C68.4305 55.096 68.2985 55.272 68.2105 55.492C68.1665 55.624 68.0785 55.712 67.9905 55.756C67.8585 55.8 67.8145 55.932 67.7265 56.064C67.8145 56.108 67.8585 55.932 67.9465 55.888C67.8585 56.108 67.7705 56.24 67.6385 56.372C67.5945 56.372 67.5505 56.416 67.5065 56.46L67.0665 57.12C66.9345 57.34 66.8025 57.604 66.6265 57.824L66.4945 58.088C66.4505 58.22 66.3625 58.352 66.2745 58.484L66.0105 58.88C65.9665 59.012 65.9225 59.1 65.8345 59.232L65.5705 59.628C65.5265 59.672 65.4825 59.716 65.4825 59.76L65.2185 60.244C65.1305 60.332 65.0865 60.42 65.0425 60.508C64.9985 60.508 64.9985 60.552 64.9985 60.552C65.0865 60.596 65.0865 60.508 65.1305 60.508L65.3065 60.244C65.2625 60.464 65.1305 60.684 64.9545 60.816C64.7785 60.904 64.6465 61.124 64.5585 61.3C64.5145 61.3 64.5145 61.344 64.5585 61.388C64.6025 61.344 64.6465 61.256 64.7345 61.212V61.256C64.6025 61.52 64.4265 61.74 64.2505 61.96C64.0745 62.092 63.9425 62.268 63.8545 62.488C63.7225 62.664 63.6345 62.84 63.5025 63.016L63.2825 63.368C63.2385 63.412 63.2385 63.412 63.2385 63.456C63.2825 63.5 63.2825 63.456 63.3265 63.412C63.3705 63.412 63.3705 63.368 63.4145 63.324C63.4145 63.28 63.4585 63.236 63.4585 63.236C63.5025 63.192 63.5025 63.148 63.5465 63.148C63.5465 63.192 63.5025 63.236 63.5025 63.28C63.3705 63.544 63.1945 63.764 62.9745 63.94C62.9305 63.94 62.9305 63.984 62.8865 64.028C62.7105 64.292 62.4465 64.6 62.3145 64.952C62.2705 65.04 62.2265 65.128 62.1825 65.172C61.9625 65.436 61.8305 65.7 61.6545 65.964C61.5665 66.14 61.4785 66.316 61.3465 66.492C61.2145 66.624 61.1265 66.844 60.9945 67.02V67.064C61.0825 67.02 61.0825 66.932 61.1265 66.888L61.2585 66.712C61.2585 66.756 61.3025 66.756 61.3025 66.756C61.1705 67.02 61.0385 67.24 60.8185 67.416C60.7745 67.416 60.7745 67.46 60.7305 67.46C60.5545 67.724 60.3785 67.944 60.2465 68.208L59.7625 69C59.7185 69.044 59.6745 69.132 59.6305 69.22C59.5425 69.396 59.4545 69.572 59.3665 69.704C59.2785 69.792 59.2345 69.88 59.1905 69.968C59.1465 70.012 59.1025 70.056 59.1025 70.144C59.0585 70.276 58.9705 70.408 58.9265 70.54C58.7945 70.76 58.7065 70.98 58.5745 71.156C58.4425 71.332 58.3985 71.552 58.4865 71.728C58.5305 71.904 58.5745 72.08 58.6625 72.256C58.7065 72.344 58.7505 72.432 58.7945 72.476C58.8825 72.608 58.9705 72.74 59.0585 72.828C59.2785 73.092 59.4545 73.092 59.7185 72.872L60.1145 72.388C60.4665 72.036 60.7745 71.684 61.0825 71.288C61.3465 70.892 61.6545 70.584 61.9625 70.232C62.3145 69.836 62.6665 69.44 63.0185 69C63.2385 68.736 63.5025 68.428 63.7665 68.164L63.8985 68.032C64.0305 67.944 64.0745 67.988 64.1625 68.076C64.1625 68.12 64.2065 68.164 64.2065 68.208C64.4265 68.56 64.6465 68.868 64.9105 69.132C65.2625 69.528 65.6585 69.748 66.0985 69.88C66.5385 70.012 66.9785 70.1 67.4185 70.012C67.5065 69.968 67.5945 69.968 67.6825 69.924C67.9465 69.924 68.2105 69.836 68.4745 69.704C69.1345 69.396 69.7945 69 70.3225 68.34L70.6305 67.944C70.8945 67.636 71.0705 67.328 71.2905 66.976C71.4665 66.624 71.6425 66.228 71.7745 65.832C71.9065 65.436 71.9945 65.04 72.0385 64.6C72.0825 64.204 72.0385 63.896 71.9065 63.544C71.7745 63.06 71.5105 62.664 71.2025 62.312C70.8945 62.004 70.5425 61.828 70.1465 61.784C69.8385 61.784 69.5745 61.828 69.2665 61.872C68.8705 61.916 68.4745 62.092 68.0785 62.268C67.5505 62.576 67.0665 62.884 66.5385 63.236C65.9665 63.72 65.3945 64.16 64.9105 64.776C64.8665 64.82 64.7785 64.908 64.6905 64.952C64.6025 64.996 64.5145 65.084 64.4265 65.172C64.3825 65.26 64.2945 65.304 64.2065 65.392H64.1625C64.1185 65.392 64.1185 65.348 64.1185 65.348C64.1625 65.26 64.1625 65.216 64.2065 65.128L64.7785 64.292C64.9105 64.116 64.9985 63.896 65.1305 63.676C65.2185 63.544 65.3065 63.412 65.3945 63.236L65.7905 62.62C65.9225 62.444 66.0105 62.268 66.0985 62.092C66.2305 61.872 66.3625 61.652 66.5385 61.432L66.9345 60.772C67.0665 60.508 67.2425 60.244 67.3745 60.024C67.6825 59.584 67.9465 59.1 68.2105 58.66C68.4745 58.22 68.7385 57.736 69.0465 57.296L69.7065 56.108C69.8825 55.888 70.0145 55.624 70.1465 55.36C70.2785 55.184 70.4105 55.008 70.4985 54.832C70.7185 54.436 70.9385 54.084 71.1585 53.688L71.7745 52.632C71.9945 52.236 72.2585 51.796 72.4785 51.4L73.5785 49.376C74.0625 48.452 74.5465 47.572 75.0305 46.692C75.4705 45.856 75.8665 45.02 76.2625 44.228C76.4825 43.832 76.6585 43.436 76.8345 43.084C77.0545 42.644 77.2745 42.248 77.4505 41.852C77.9345 40.796 78.4185 39.74 78.9465 38.684L79.3425 37.716C79.5625 37.232 79.7385 36.748 79.9585 36.264C80.1345 35.824 80.3105 35.384 80.4865 34.988L80.8825 34.02C81.0145 33.58 81.1905 33.184 81.3665 32.744C81.5425 32.26 81.6745 31.776 81.8505 31.292L82.2465 30.104C82.3345 29.708 82.4665 29.312 82.5545 28.916C82.6425 28.652 82.6865 28.388 82.7305 28.124C82.9505 27.376 83.0825 26.628 83.2585 25.924C83.3025 25.66 83.2145 25.528 82.9945 25.528ZM81.3665 28.916L80.8385 30.676C80.7505 30.94 80.6625 31.16 80.5305 31.424C80.3105 32.084 80.0465 32.744 79.7825 33.404C79.5185 34.108 79.2545 34.812 78.9465 35.472L78.2865 37.056C77.7585 38.244 77.1865 39.432 76.6145 40.62C76.2625 41.368 75.9105 42.16 75.5145 42.908C74.7665 44.404 73.9745 45.9 73.1825 47.396L71.9505 49.684C71.7745 49.992 71.5985 50.344 71.3785 50.696C71.2025 51.048 70.9825 51.356 70.8065 51.708C70.6305 52.06 70.4105 52.368 70.2345 52.72L69.6185 53.776C69.4425 54.04 69.3105 54.304 69.1345 54.612L68.6065 55.448C68.5185 55.624 68.4305 55.8 68.2985 55.976L67.9905 56.504C67.8145 56.812 67.5945 57.12 67.4185 57.472C67.2865 57.648 67.1985 57.824 67.0665 58.044C67.0225 58.088 66.9785 58.176 66.9345 58.264V58.132C67.1985 57.692 67.4625 57.252 67.6825 56.812C67.8585 56.548 68.0345 56.284 68.1665 56.02C68.3425 55.712 68.5185 55.404 68.7385 55.096C68.8265 54.876 68.9585 54.7 69.0465 54.524C69.1345 54.392 69.2225 54.304 69.2665 54.172C69.5745 53.688 69.8385 53.204 70.1025 52.72C70.4985 52.06 70.8945 51.4 71.2465 50.696C71.6425 50.036 71.9945 49.376 72.3905 48.672C73.0065 47.572 73.6225 46.428 74.1945 45.24C74.5025 44.712 74.8105 44.14 75.0745 43.568C75.4265 42.82 75.8225 42.072 76.1745 41.368L77.0545 39.432C77.5385 38.464 77.9785 37.496 78.3745 36.528C78.6825 35.868 78.9465 35.208 79.2545 34.548L79.9145 32.92C80.2225 32.128 80.4865 31.38 80.7505 30.588C80.9705 29.972 81.1465 29.356 81.3665 28.74C81.3665 28.696 81.4105 28.608 81.4545 28.564L81.3665 28.916ZM81.4105 31.116L81.0145 32.26C80.7065 33.096 80.3985 33.976 80.0465 34.812L79.2545 36.704C79.0345 37.232 78.8145 37.76 78.5505 38.244L77.3625 40.884C76.9225 41.808 76.4825 42.732 75.9985 43.612L75.6025 44.448C75.6025 44.448 75.5585 44.492 75.5145 44.492C75.5145 44.492 75.5145 44.448 75.5145 44.404L75.7785 43.876C75.9105 43.744 75.9545 43.524 76.0425 43.348C76.1305 43.172 76.2625 42.952 76.3505 42.776L76.4825 42.468C76.6145 42.16 76.7905 41.852 76.9225 41.588L77.0545 41.324C77.1425 41.148 77.2305 40.928 77.3185 40.752L77.5825 40.18C77.6705 40.004 77.8025 39.828 77.8465 39.608C77.8905 39.52 77.8905 39.432 77.9345 39.388L78.3305 38.552C78.3745 38.508 78.3745 38.464 78.4185 38.376C78.4625 38.332 78.5065 38.244 78.5065 38.2C78.5945 38.024 78.6385 37.848 78.7265 37.672C78.7265 37.672 78.7705 37.584 78.7705 37.54H78.7265L78.6385 37.672C78.5945 37.672 78.5945 37.628 78.5945 37.628C78.6385 37.408 78.7265 37.232 78.8585 37.056C78.8585 37.1 78.9025 37.1 78.9465 37.144C78.9905 36.968 79.1225 36.836 79.1665 36.616C79.1225 36.616 79.1225 36.66 79.1225 36.66C79.0785 36.748 79.0345 36.836 78.9465 36.88V36.792C78.9905 36.704 79.0345 36.616 79.0785 36.572L79.2105 36.264C79.2105 36.176 79.2545 36.088 79.2985 36C79.3865 35.912 79.4305 35.824 79.4745 35.736C79.5185 35.56 79.5625 35.428 79.6505 35.296L79.7385 34.944C79.7825 34.812 79.8265 34.68 79.9145 34.592C79.9585 34.416 80.0025 34.284 80.0905 34.152C80.0905 34.064 80.1345 33.976 80.1785 33.932C80.2225 33.8 80.2665 33.668 80.3545 33.536C80.4425 33.272 80.5305 32.964 80.7065 32.656L80.7505 32.48C80.9265 32.084 81.0585 31.644 81.1905 31.248C81.2345 31.204 81.2345 31.116 81.2785 31.072C81.3225 31.028 81.3665 30.984 81.4105 30.984V31.116ZM78.1985 38.64C78.1985 38.508 78.2425 38.42 78.3305 38.332C78.2865 38.552 78.2865 38.552 78.1985 38.64ZM78.0225 38.992V38.948C78.0225 38.904 78.0225 38.904 78.0665 38.86H78.1105C78.0665 38.904 78.0665 38.948 78.0665 38.992H78.0225ZM77.8465 39.344C77.8465 39.3 77.8905 39.256 77.8905 39.168C77.9345 39.256 77.9345 39.256 77.8465 39.344ZM77.7145 39.652V39.608C77.7145 39.564 77.7145 39.564 77.7585 39.564C77.7585 39.608 77.7585 39.608 77.7145 39.652ZM77.4065 40.268C77.4065 40.268 77.4065 40.224 77.4505 40.224C77.4505 40.268 77.4505 40.268 77.4505 40.268H77.4065ZM77.2305 40.62L77.2745 40.576V40.62H77.2305ZM77.0545 41.016C77.0545 40.972 77.0545 40.928 77.1425 40.884C77.1425 40.928 77.1425 40.972 77.0545 41.016ZM76.9225 41.368V41.28C76.9665 41.28 76.9665 41.28 76.9665 41.324L76.9225 41.368ZM76.7465 41.72C76.7465 41.632 76.7465 41.632 76.7905 41.588C76.8345 41.632 76.7905 41.676 76.7465 41.72ZM76.1745 42.864C76.2625 42.468 76.4825 42.204 76.6145 41.94C76.6585 41.94 76.6585 41.984 76.6145 41.984C76.5705 42.116 76.5265 42.248 76.4825 42.336L76.3505 42.6C76.3065 42.688 76.3065 42.776 76.1745 42.864ZM75.9985 43.128C76.0425 43.128 76.0425 43.084 76.0425 43.084H76.0865C76.0865 43.128 76.0425 43.128 76.0425 43.172C76.0425 43.172 76.0425 43.128 75.9985 43.128ZM75.6465 43.964V43.92C75.6465 43.92 75.6465 43.876 75.6905 43.876C75.6905 43.876 75.6905 43.876 75.6905 43.92L75.6465 43.964ZM75.4265 44.36C75.4265 44.272 75.4705 44.228 75.5145 44.14C75.5145 44.316 75.5145 44.316 75.4265 44.36ZM74.8985 45.768C74.8545 45.724 74.8545 45.68 74.8985 45.68C74.9865 45.504 75.0305 45.328 75.1185 45.196C75.2065 45.108 75.2505 45.02 75.2505 44.888C75.2945 44.8 75.3385 44.712 75.4265 44.668C75.3385 44.976 75.0745 45.548 74.8985 45.768ZM75.2505 44.756V44.712C75.2505 44.712 75.2505 44.712 75.2505 44.668L75.2945 44.712C75.2945 44.712 75.2505 44.712 75.2505 44.756ZM74.9865 45.196V45.152H75.0305V45.196H74.9865ZM74.7665 45.592C74.7665 45.592 74.7665 45.548 74.8105 45.548C74.8105 45.548 74.8545 45.504 74.8545 45.46L74.8985 45.504C74.8985 45.548 74.8545 45.592 74.8105 45.592H74.7665ZM74.5905 45.988C74.5905 45.944 74.5905 45.944 74.5905 45.9L74.6345 45.944V45.988H74.5905ZM74.7665 46.032L74.5465 46.516C74.3705 46.824 74.1945 47.176 73.9745 47.528C73.9745 47.572 73.9305 47.616 73.8865 47.66C73.7985 47.88 73.7985 47.924 73.7105 48.012C73.6665 47.968 73.7105 47.88 73.7105 47.836C73.7985 47.792 73.8425 47.748 73.8865 47.66C73.8865 47.528 73.9305 47.396 74.0185 47.308C74.0625 47.22 74.1065 47.132 74.1505 47.044L74.5465 46.384C74.5905 46.296 74.5905 46.208 74.6345 46.12C74.6785 46.076 74.6785 45.988 74.7665 45.988V46.032ZM74.3265 46.516C74.3265 46.428 74.3265 46.428 74.3705 46.384C74.3705 46.428 74.3705 46.428 74.3265 46.516ZM74.1065 46.956C74.1065 46.868 74.1065 46.868 74.1945 46.78C74.1945 46.824 74.1505 46.824 74.1505 46.868C74.1505 46.912 74.1065 46.912 74.1065 46.956ZM73.8425 47.396C73.8425 47.352 73.8425 47.352 73.9305 47.264L73.8425 47.396ZM73.6225 47.88C73.5785 47.792 73.6225 47.748 73.6665 47.704C73.7105 47.792 73.6665 47.836 73.6225 47.88ZM73.4465 48.452C73.4465 48.32 73.5345 48.276 73.6225 48.188C73.5785 48.32 73.5785 48.364 73.4465 48.452ZM73.1385 49.068V48.98C73.1825 48.848 73.2705 48.76 73.3585 48.672C73.3145 48.804 73.2705 48.98 73.1385 49.068ZM73.0065 48.892L73.0945 48.76C73.1385 48.848 73.1385 48.848 73.0065 48.892ZM72.7865 49.42C72.7865 49.332 72.7865 49.244 72.8745 49.244C72.8745 49.332 72.8745 49.332 72.7865 49.42ZM73.0065 49.332C72.7865 49.816 72.5225 50.212 72.2585 50.608C72.2145 50.608 72.2585 50.608 72.2585 50.564C72.2585 50.52 72.3025 50.476 72.3025 50.432C72.3905 50.344 72.4345 50.256 72.4785 50.124C72.5225 50.036 72.5225 49.992 72.5665 49.948C72.6985 49.816 72.7425 49.684 72.7865 49.552C72.8305 49.42 72.8745 49.376 72.9625 49.288H73.0065V49.332ZM72.4785 49.992C72.4785 49.86 72.4785 49.86 72.5665 49.772C72.5665 49.86 72.5225 49.904 72.4785 49.992ZM71.4225 49.816C71.4225 49.86 71.4225 49.86 71.4665 49.86C71.4225 49.86 71.4225 49.86 71.4225 49.86V49.816ZM72.1705 50.52C72.1705 50.432 72.1705 50.388 72.2585 50.388L72.1705 50.52ZM71.9505 51.18C71.9505 51.048 72.0385 50.96 72.1265 50.916C72.0825 51.048 72.0385 51.092 71.9505 51.18ZM71.7305 51.664C71.6425 51.796 71.5545 51.972 71.4665 52.104L71.3345 52.324C71.2905 52.368 71.2905 52.412 71.2465 52.412C71.2465 52.368 71.2465 52.324 71.2905 52.28C71.3785 52.148 71.4665 52.016 71.5105 51.84C71.5545 51.708 71.6425 51.664 71.7305 51.576C71.7745 51.576 71.7305 51.62 71.7305 51.664ZM69.9705 52.368H70.0145C70.0145 52.368 70.0145 52.412 69.9705 52.412V52.368ZM70.8505 53.16C70.8065 53.16 70.8065 53.116 70.8065 53.072C70.8505 53.028 70.8945 52.94 70.9385 52.896L71.0265 52.764C71.0265 52.94 70.9385 53.072 70.8505 53.16ZM70.8065 52.896V52.852L70.8505 52.808V52.852L70.8065 52.896ZM69.6185 52.984C69.6185 53.116 69.6185 53.16 69.4865 53.248C69.4865 53.116 69.4865 53.116 69.6185 52.984ZM70.4545 53.512C70.4545 53.556 70.4545 53.556 70.4105 53.556V53.512C70.4545 53.468 70.4545 53.468 70.4545 53.468V53.512ZM70.5425 53.644C70.4985 53.644 70.4985 53.6 70.5425 53.6C70.5425 53.556 70.5865 53.468 70.6305 53.468C70.6305 53.556 70.5865 53.6 70.5425 53.644ZM70.0145 54.568C69.9705 54.48 70.0145 54.436 70.0585 54.392L70.2345 54.128C70.1905 54.304 70.1465 54.436 70.0145 54.568ZM69.6185 55.228C69.6625 55.052 69.7505 54.92 69.8385 54.832C69.7945 54.964 69.7505 55.14 69.6185 55.228ZM69.6185 54.964V54.876C69.6625 54.876 69.6625 54.92 69.6625 54.92C69.6185 54.92 69.6185 54.964 69.6185 54.964ZM69.2225 55.844C69.2225 55.756 69.2665 55.712 69.3985 55.58C69.3545 55.756 69.3545 55.756 69.2225 55.844ZM69.1785 55.712V55.668C69.1785 55.668 69.2225 55.668 69.1785 55.712ZM68.6945 56.768C68.7385 56.636 68.7385 56.636 68.8705 56.504C68.8265 56.592 68.7825 56.68 68.6945 56.768ZM67.3305 56.856C67.2865 57.076 67.2425 57.12 67.1545 57.164C67.1985 57.032 67.2425 56.944 67.3305 56.856ZM66.6265 58.132C66.5825 58.132 66.5825 58.088 66.5825 58.044L66.8465 57.692C66.8025 57.868 66.7145 58 66.6265 58.132ZM66.3625 58.44C66.3625 58.616 66.3625 58.66 66.1865 58.792C66.2305 58.616 66.2745 58.572 66.3625 58.44ZM65.9225 59.804C65.9665 59.76 65.9665 59.716 66.0105 59.628C66.1865 59.364 66.3625 59.056 66.5385 58.792L66.6265 58.704C66.5385 58.924 66.1425 59.584 65.9225 59.804ZM65.5705 59.804C65.6145 59.672 65.6145 59.672 65.7465 59.496C65.6585 59.76 65.6585 59.76 65.5705 59.804ZM65.3505 60.816C65.3945 60.64 65.4385 60.552 65.5705 60.42C65.5265 60.64 65.4825 60.684 65.3505 60.816ZM63.9425 62.532C63.9425 62.488 63.8985 62.444 63.9425 62.444C63.9865 62.356 64.0305 62.268 64.1185 62.18C64.0745 62.312 64.0305 62.444 63.9425 62.532ZM64.7785 67.064L64.9985 66.8C65.3945 66.448 65.7905 66.052 66.1865 65.656C66.4945 65.348 66.8465 65.04 67.1985 64.732C67.7705 64.248 68.3425 63.808 68.9585 63.5C69.3105 63.324 69.6185 63.192 69.9265 63.104H70.0145C70.1905 63.016 70.3665 63.06 70.5425 63.016C70.6745 63.016 70.8065 63.104 70.8505 63.324C70.8505 63.456 70.8505 63.544 70.8945 63.676C70.8945 64.072 70.8065 64.468 70.6745 64.864C70.6305 65.084 70.5865 65.304 70.4985 65.48C70.4545 65.524 70.4545 65.568 70.4545 65.568C70.4545 65.656 70.4545 65.744 70.4105 65.788C70.3225 66.008 70.2345 66.184 70.1025 66.36C70.0585 66.492 69.9705 66.58 69.9265 66.668L69.7945 66.8C69.7065 66.844 69.6625 66.888 69.6185 66.976C69.6185 67.02 69.5745 67.064 69.5745 67.064C69.4425 67.24 69.3105 67.372 69.1785 67.504C69.0025 67.636 68.8265 67.768 68.6505 67.944C68.2545 68.252 67.8145 68.516 67.3745 68.692C67.1545 68.78 66.9345 68.868 66.7145 68.868C66.3625 68.912 65.9665 68.912 65.6145 68.78C65.3065 68.692 65.0865 68.516 64.8665 68.252C64.7345 68.032 64.6465 67.768 64.6465 67.46C64.6465 67.284 64.6905 67.152 64.7785 67.064ZM64.8665 65.216C64.9985 65.04 65.1745 64.908 65.3065 64.776C65.5265 64.512 65.7905 64.292 66.0105 64.116L66.2305 63.984C66.1425 64.116 66.0545 64.204 65.9225 64.292C65.6585 64.6 65.3505 64.864 65.0425 65.172C64.9545 65.216 64.9105 65.304 64.8225 65.304C64.8225 65.26 64.8225 65.216 64.8665 65.216ZM62.4905 64.82V64.776C62.6225 64.556 62.7105 64.38 62.8865 64.204C62.7985 64.468 62.6225 64.688 62.4905 64.82ZM66.4505 64.688C66.4065 64.82 66.3185 64.908 66.0985 65.084C66.0545 65.172 65.9665 65.216 65.8785 65.304L65.7025 65.436C65.6145 65.568 65.5265 65.612 65.4385 65.656C65.3505 65.876 65.2185 65.964 65.0865 66.096C65.0425 65.964 65.0865 65.832 65.1305 65.788C65.1745 65.744 65.2185 65.7 65.2625 65.7C65.3065 65.744 65.3945 65.7 65.4385 65.656C65.4825 65.568 65.5705 65.48 65.7025 65.436C65.7025 65.392 65.7465 65.304 65.7465 65.216C65.7905 65.128 65.8345 65.084 65.9225 65.084C65.9665 65.084 66.0545 65.084 66.0985 65.04C66.2305 64.82 66.2745 64.776 66.4505 64.688ZM61.8305 65.832V65.788C61.9185 65.656 62.0945 65.436 62.1825 65.348C62.0505 65.612 61.9625 65.744 61.8305 65.832ZM65.3945 65.524C65.4385 65.48 65.4385 65.48 65.4385 65.48H65.4825C65.4385 65.48 65.4385 65.524 65.4385 65.524H65.3945ZM63.9865 66.228L63.8105 66.404C63.6785 66.58 63.5025 66.712 63.3265 66.844C63.2825 66.976 63.2385 67.064 63.1505 67.108C63.1945 66.976 63.1945 66.976 63.3265 66.844C63.4145 66.712 63.5025 66.624 63.5905 66.536L63.8545 66.272C63.8985 66.228 63.9425 66.184 63.9865 66.14V66.228ZM64.8225 66.272H64.8665C64.8665 66.316 64.8225 66.316 64.8225 66.316C64.8225 66.36 64.8225 66.316 64.7785 66.316C64.8225 66.316 64.8225 66.272 64.8225 66.272ZM68.7825 68.252C68.8265 68.164 68.9145 68.076 69.0025 68.032C69.0465 67.944 69.1345 67.9 69.1785 67.812C69.2665 67.724 69.3545 67.68 69.3985 67.592C69.4865 67.504 69.5745 67.46 69.6185 67.372C69.7065 67.284 69.7505 67.196 69.8385 67.152C69.8825 67.064 69.9265 66.976 70.0145 66.932C69.8385 67.328 69.0905 68.12 68.7825 68.252ZM63.7665 67.46L63.7225 67.416H63.7665V67.46ZM70.1025 67.9C70.1025 67.812 70.1465 67.768 70.2345 67.68C70.1905 67.812 70.1465 67.856 70.1025 67.9ZM69.9265 68.164L69.6625 68.428C69.6185 68.428 69.5745 68.428 69.5745 68.428V68.296C69.6185 68.208 69.6625 68.164 69.7065 68.164C69.7945 68.12 69.8385 68.12 69.9705 68.076C69.9265 68.12 69.9265 68.12 69.9265 68.164ZM94.0681 64.028H94.1121C93.9801 63.764 93.7161 63.676 93.4961 63.632C93.2761 63.5 93.1441 63.544 92.9241 63.544C92.6161 63.632 92.3961 63.72 92.1321 63.896C91.4721 64.292 90.8121 64.732 90.1961 65.128C89.5361 65.524 88.8321 65.964 88.2161 66.404C87.6441 66.756 87.1161 67.152 86.5881 67.504C85.4441 68.296 84.3001 69 83.2001 69.792C82.9801 69.924 82.8041 70.1 82.5841 70.1C82.4961 70.144 82.3641 70.056 82.3641 69.968C82.3201 69.792 82.4521 69.616 82.3201 69.484C82.3641 69.308 82.4521 69.176 82.4081 69C82.3201 68.736 82.4521 68.516 82.5401 68.34C82.5401 68.296 82.5841 68.208 82.5841 68.12L82.6281 67.944C82.6721 67.812 82.6721 67.68 82.5841 67.504H82.6281C82.6721 67.372 82.6721 67.24 82.6721 67.152C82.6721 66.844 82.7161 66.58 82.7601 66.36C82.8921 65.964 82.8921 65.48 82.8041 64.996C82.7161 64.688 82.5841 64.38 82.3201 64.16C81.9241 63.764 81.4841 63.5 81.0001 63.28C80.7801 63.148 80.4721 63.104 80.2521 63.192C79.9881 63.236 79.7681 63.324 79.5921 63.456C79.1961 63.72 78.7121 63.984 78.3161 64.292C77.4801 64.952 76.6881 65.656 75.8521 66.316C75.7641 66.404 75.7201 66.448 75.5881 66.492C75.5441 66.536 75.4561 66.492 75.4121 66.404C75.3681 66.404 75.3241 66.404 75.3241 66.404V66.184C75.3681 66.14 75.4121 66.096 75.4121 66.052C75.4561 66.096 75.4561 66.14 75.4561 66.184L75.5441 66.052C75.5441 66.008 75.5441 65.964 75.5881 65.876C75.5881 65.832 75.6321 65.832 75.6761 65.788H75.5441C75.5441 65.656 75.5441 65.524 75.6761 65.436C75.6761 65.436 75.7201 65.348 75.7201 65.26C75.7201 65.216 75.7201 65.216 75.7641 65.172C75.7641 65.04 75.8081 64.952 75.8521 64.864C75.8961 64.776 75.8961 64.644 75.9841 64.556C76.0281 64.468 76.0721 64.336 76.1161 64.292L76.2481 63.94C76.2921 63.896 76.2921 63.852 76.2921 63.808C76.2921 63.676 76.2921 63.588 76.4241 63.544C76.3801 63.456 76.3801 63.368 76.4241 63.324C76.4681 63.192 76.4681 63.104 76.6001 63.016C76.6001 62.972 76.6441 62.928 76.6881 62.928H76.6441C76.6881 62.796 76.6881 62.708 76.7761 62.62C76.7761 62.532 76.7761 62.4 76.8641 62.312C76.8641 62.18 76.9081 62.092 76.9961 62.004H76.9521C76.9961 61.916 76.9961 61.784 77.0841 61.696C77.1721 61.476 77.2161 61.256 77.3921 61.08C77.3921 61.036 77.4361 60.992 77.4361 60.948C77.4361 60.772 77.4801 60.596 77.5681 60.42C77.6121 60.42 77.6561 60.376 77.6561 60.332C77.6561 60.2 77.7001 60.156 77.7881 60.068H77.7441L77.8761 59.76C77.8761 59.628 77.9201 59.54 78.0081 59.452C78.0081 59.188 78.0961 58.924 78.3161 58.748C78.3161 58.616 78.3161 58.484 78.4481 58.44H78.4041C78.4481 58.308 78.4481 58.176 78.5801 58.088C78.5801 58.044 78.6241 58 78.6241 57.956C78.6241 57.868 78.6241 57.78 78.7121 57.736V57.692H78.8441C78.8001 57.648 78.7561 57.692 78.7121 57.692C78.7121 57.56 78.7561 57.472 78.8441 57.384C78.8881 57.164 78.9321 56.944 79.1081 56.768L79.1961 56.68C79.1961 56.548 79.1961 56.46 79.2401 56.372C79.2401 56.24 79.2841 56.152 79.3721 56.064C79.5481 55.536 79.7241 55.008 79.9881 54.612L80.1201 54.304C80.2961 53.82 80.4281 53.292 80.7361 52.852C80.7801 52.808 80.8241 52.808 80.8241 52.764C80.8241 52.588 80.9121 52.456 81.0001 52.368C81.0001 52.104 81.0881 51.928 81.2641 51.752H81.2201C81.2641 51.576 81.3081 51.444 81.4401 51.356C81.6161 50.652 81.9681 49.992 82.2761 49.42C82.3201 49.288 82.3201 49.156 82.4081 49.112C82.4521 49.068 82.4961 49.024 82.4961 48.98C82.5401 48.804 82.5841 48.672 82.6721 48.584C82.7161 48.1 82.9801 47.792 83.2001 47.396V47.44C83.4201 46.78 83.7281 46.12 84.0361 45.504C84.2561 45.064 84.4321 44.624 84.6081 44.228C85.0041 43.436 85.3561 42.688 85.6641 41.852C85.9281 41.324 86.1041 40.752 86.3241 40.18C86.5881 39.652 86.7641 39.036 86.9841 38.464C87.0281 38.332 86.9841 38.2 86.8081 38.112H86.6761C86.5881 38.068 86.5001 38.068 86.4121 38.112C86.3241 38.244 86.1921 38.376 86.1481 38.508C85.7081 39.168 85.3561 39.784 85.0041 40.444C84.4321 41.544 83.8601 42.688 83.2441 43.788L81.6601 46.824C81.3961 47.396 81.0881 47.968 80.8681 48.496C80.5161 49.156 80.2521 49.816 79.9001 50.476C79.4161 51.576 78.8881 52.632 78.4041 53.732C77.9201 54.876 77.4361 55.976 76.9081 57.12C76.3361 58.44 75.8081 59.672 75.2801 60.992C75.1041 61.344 74.9281 61.74 74.8401 62.136C74.8401 62.224 74.7961 62.312 74.7521 62.4C74.5761 62.84 74.4001 63.236 74.2241 63.676L73.3441 65.964C73.2561 66.228 73.0801 66.492 72.9921 66.8C72.8601 67.284 72.6841 67.768 72.4641 68.208C72.2001 68.78 72.0241 69.396 71.8041 70.012C71.7161 70.144 71.8041 70.364 72.0681 70.496C72.2001 70.628 72.4201 70.672 72.5521 70.848C72.7721 71.068 73.2121 71.156 73.3881 71.112C73.5641 71.024 73.6521 70.936 73.7841 70.804C74.1361 70.452 74.4881 70.056 74.8401 69.66C75.8961 68.56 76.9521 67.504 78.1401 66.58C78.6681 66.096 79.2401 65.7 79.8121 65.26L80.5601 64.776C80.6481 64.732 80.7361 64.688 80.8681 64.688C80.9121 64.688 80.9561 64.732 80.9561 64.82C81.0001 64.908 81.0001 65.084 80.9561 65.216C80.8681 66.14 80.6921 67.152 80.5601 68.076C80.4281 68.692 80.3841 69.352 80.4721 70.012C80.5601 70.408 80.7361 70.716 81.0881 71.024C81.2201 71.156 81.3521 71.244 81.5281 71.376C81.9241 71.772 82.3641 71.86 82.8041 71.816C83.2001 71.816 83.4641 71.64 83.7721 71.464C84.5641 71.024 85.3121 70.452 86.1041 69.88C87.4681 68.824 88.8761 67.768 90.2841 66.756C91.0761 66.228 91.9561 65.7 92.7041 65.128C93.1441 64.864 93.5401 64.644 93.9801 64.424C94.0241 64.38 94.0681 64.336 94.1121 64.336C94.2001 64.292 94.1561 64.16 94.0681 64.028ZM82.5401 49.112C82.5401 49.068 82.5401 49.024 82.4961 48.98V49.068C82.4961 49.068 82.5401 49.068 82.5401 49.112ZM82.4081 49.112H82.5401C82.4961 49.068 82.4521 49.068 82.4081 49.112ZM80.9561 51.532C80.9561 51.444 81.0001 51.312 81.0881 51.224C81.2201 50.784 81.3961 50.344 81.6601 49.992C81.6161 49.86 81.7041 49.772 81.7921 49.728C81.7921 49.816 81.7921 49.948 81.6601 49.992C81.5281 50.432 81.4401 50.916 81.0881 51.224C81.0881 51.356 81.0441 51.488 80.9561 51.532C80.9561 51.708 80.9561 51.884 80.8241 51.972C80.7801 51.752 80.8681 51.62 80.9561 51.532ZM80.6041 52.368C80.6041 52.148 80.6481 52.06 80.7801 51.972C80.8241 52.104 80.7361 52.236 80.6041 52.368C80.5601 52.632 80.4721 52.896 80.2961 53.072C80.2961 52.764 80.3841 52.588 80.6041 52.368ZM80.8241 52.764C80.8241 52.808 80.8241 52.808 80.8681 52.852C80.8681 52.808 80.8681 52.808 80.8241 52.764ZM80.2081 53.204C80.2521 53.292 80.2081 53.424 80.1201 53.468C80.1201 53.336 80.1641 53.248 80.2081 53.204ZM74.4881 67.416C74.4441 67.196 74.5321 67.064 74.5761 66.888C75.0161 65.788 75.4121 64.732 75.8081 63.676C76.2921 62.532 76.7321 61.388 77.1721 60.288C77.7881 58.792 78.4041 57.296 79.0641 55.756C79.1521 55.536 79.1961 55.36 79.3281 55.184C79.4161 54.964 79.4601 54.656 79.6801 54.48C79.6801 54.392 79.6801 54.26 79.7681 54.216C79.7681 53.996 79.8121 53.864 79.9881 53.82C79.9441 53.688 79.9881 53.556 80.1201 53.512C80.1201 53.644 80.0761 53.732 79.9881 53.82C79.9881 53.952 79.9441 54.128 79.8121 54.216C79.8121 54.348 79.7681 54.436 79.7241 54.524C79.6801 54.832 79.5481 55.008 79.4161 55.272C79.1961 55.8 79.0201 56.328 78.7561 56.856C78.0081 58.704 77.2601 60.596 76.5561 62.488C76.2481 63.28 75.8521 64.116 75.5881 64.952C75.2801 65.612 75.1041 66.272 74.7961 66.932C74.7081 67.108 74.7081 67.328 74.4881 67.416ZM78.6241 54.524C78.6241 54.612 78.6241 54.7 78.5801 54.788C78.5801 54.7 78.6241 54.612 78.6241 54.524ZM78.2281 55.536C78.2721 55.58 78.2721 55.668 78.3161 55.712V55.844C78.3161 55.8 78.3161 55.756 78.2721 55.712C78.2721 55.756 78.2281 55.8 78.2281 55.844H78.0961C78.0961 55.712 78.1401 55.58 78.2281 55.536ZM77.7441 56.68C77.7441 56.504 77.7881 56.328 77.9641 56.24C77.9641 56.152 77.9641 56.064 78.0081 55.976C78.0521 56.02 78.0521 56.108 78.0521 56.152L77.9641 56.24C77.9641 56.328 77.9641 56.372 78.0081 56.46C77.9641 56.504 77.9641 56.548 77.9201 56.548L77.7441 56.68C77.7441 56.724 77.7881 56.768 77.7881 56.856H77.9201C77.8761 56.9 77.8761 56.944 77.8321 56.944C77.8321 56.944 77.8321 56.9 77.7881 56.856C77.7881 56.9 77.7441 56.944 77.7001 56.988C77.7001 56.988 77.6561 56.944 77.6121 56.944C77.6121 56.812 77.6121 56.724 77.7441 56.68ZM79.2401 56.68H79.1961V56.724C79.1961 56.724 79.2401 56.724 79.2401 56.68ZM79.1961 56.768V56.724C79.1961 56.724 79.1521 56.724 79.1081 56.768H79.1961ZM77.5241 57.12C77.5241 57.164 77.5681 57.252 77.5681 57.296H77.4801C77.5241 57.208 77.5241 57.164 77.5241 57.12ZM77.4361 57.384V57.604C77.4361 57.648 77.3921 57.648 77.3481 57.692C77.3041 57.56 77.3481 57.472 77.4361 57.384ZM77.3041 57.692C77.3481 57.78 77.3481 57.824 77.3921 57.868C77.4361 57.868 77.4361 57.868 77.4361 57.868V57.956C77.4361 57.956 77.3921 57.912 77.3921 57.868C77.3481 57.912 77.3481 57.956 77.3041 57.956L77.1281 58.088C77.1281 57.912 77.1721 57.78 77.3041 57.692ZM76.7321 59.1C76.6881 58.968 76.7761 58.836 76.8641 58.704C76.8641 58.572 76.9081 58.484 76.9961 58.44C76.9961 58.528 76.9521 58.616 76.8641 58.704C76.9081 58.792 76.9081 58.88 76.9081 58.924C76.9081 58.924 76.9081 58.924 76.9521 58.924H77.0401C76.9961 58.968 76.9961 59.012 76.9521 59.012V58.924C76.9081 58.968 76.8641 59.012 76.8641 59.012L76.7321 59.1C76.7321 59.188 76.7321 59.232 76.7761 59.32C76.7321 59.364 76.6441 59.408 76.6001 59.408C76.6001 59.276 76.6001 59.188 76.7321 59.1ZM76.9521 59.056C76.9521 59.056 76.9521 59.144 76.9081 59.188C76.9081 59.144 76.8641 59.056 76.8641 59.056H76.9521ZM76.4681 59.716C76.4681 59.628 76.5121 59.54 76.6001 59.452C76.6001 59.496 76.6441 59.584 76.6441 59.628H76.7761C76.7321 59.672 76.7321 59.76 76.7321 59.804C76.6881 59.76 76.6881 59.672 76.6441 59.628C76.6001 59.628 76.5121 59.672 76.4681 59.716C76.4681 59.804 76.5121 59.892 76.5121 59.936C76.4681 59.98 76.4241 60.024 76.3361 60.024C76.3361 59.892 76.3801 59.804 76.4681 59.716ZM76.1601 60.464C76.2041 60.508 76.2041 60.596 76.2481 60.684C76.2921 60.684 76.2921 60.684 76.2921 60.684V60.816C76.2921 60.772 76.2481 60.728 76.2481 60.684C76.1601 60.684 76.1161 60.728 76.0721 60.772C76.0281 60.64 76.0721 60.552 76.1601 60.464ZM77.5681 60.464C77.6121 60.508 77.6121 60.596 77.6561 60.64C77.6561 60.596 77.7001 60.508 77.7001 60.464H77.5681ZM75.8961 61.036C75.8961 60.904 75.9401 60.816 76.0281 60.772C76.0721 60.816 76.0721 60.86 76.1161 60.948H76.2041C76.2041 61.036 76.2041 61.08 76.1601 61.168C76.1601 61.08 76.1601 61.036 76.1161 60.948C76.0721 60.992 76.0281 61.036 75.9401 61.08C75.9841 61.168 75.9841 61.212 75.9841 61.3H76.0721C76.1161 61.388 76.0721 61.476 75.9841 61.564C75.9401 61.608 75.9401 61.652 75.8961 61.652C75.8961 61.652 75.8961 61.608 75.8521 61.564C75.8521 61.608 75.8081 61.652 75.7641 61.696C75.7641 61.74 75.7641 61.828 75.7201 61.916V61.96H75.7641V61.916H75.8521C75.8081 61.916 75.8081 61.96 75.7641 61.96C75.7641 62.048 75.7201 62.092 75.7201 62.18V61.96C75.6321 62.004 75.5881 62.048 75.5001 62.048C75.5001 61.784 75.6321 61.564 75.8081 61.344C75.7641 61.256 75.8081 61.124 75.8961 61.036ZM75.9841 61.564C75.9401 61.476 75.9401 61.432 75.8961 61.344H75.8081C75.8081 61.432 75.8521 61.52 75.8521 61.564H75.9841ZM77.2601 61.652L77.2161 61.696H77.2601V61.652ZM75.8961 61.696L75.8521 61.872C75.8081 61.828 75.8081 61.74 75.8081 61.696H75.8961ZM77.1281 61.96C77.0841 61.96 77.0401 62.004 76.9961 62.004H77.1281V61.96ZM74.3121 65.304V65.436C74.2681 65.48 74.2241 65.524 74.1361 65.568C74.1801 65.612 74.1801 65.7 74.1801 65.788C74.1361 65.788 74.0921 65.832 74.0041 65.876C74.0481 65.964 74.0481 66.008 74.0921 66.052H74.1801C74.1801 66.14 74.1361 66.184 74.1361 66.272C74.1361 66.184 74.0921 66.14 74.0921 66.052C74.0041 66.096 73.9601 66.14 73.9601 66.184C73.9601 66.272 73.9601 66.316 73.9601 66.404H74.0481C74.0481 66.536 74.0481 66.58 73.9601 66.668C73.9601 66.8 73.9601 66.932 73.8721 67.02C73.8721 67.152 73.8281 67.196 73.7401 67.284C73.7401 67.416 73.6961 67.548 73.6081 67.636C73.6081 67.768 73.5641 67.812 73.4761 67.9C73.4761 68.076 73.4761 68.164 73.3881 68.252C73.3881 68.34 73.3881 68.428 73.2561 68.516C73.2561 68.56 73.2121 68.56 73.1681 68.516C73.1681 68.56 73.1241 68.56 73.1241 68.56C72.9921 68.648 73.0361 68.912 72.8161 68.912C72.8161 68.692 72.8601 68.56 72.9481 68.384C73.0361 68.164 73.1241 67.9 73.3001 67.724C73.3001 67.592 73.3441 67.46 73.3881 67.372C73.3881 67.24 73.4321 67.196 73.5201 67.108C73.5201 66.844 73.6521 66.624 73.7841 66.492C73.7841 66.36 73.8281 66.228 73.9161 66.14C73.9161 66.008 73.9601 65.964 74.0041 65.876C74.0041 65.744 74.0481 65.612 74.1361 65.568C74.1361 65.436 74.1801 65.348 74.2681 65.26C74.3121 64.864 74.4441 64.512 74.6641 64.248C74.6641 63.984 74.7081 63.764 74.9281 63.632C74.8841 63.5 74.9281 63.368 75.0601 63.324C75.0161 63.148 75.0601 63.104 75.1041 63.016C75.1041 62.884 75.1481 62.752 75.2361 62.664C75.2361 62.532 75.2801 62.488 75.3681 62.4C75.4121 62.268 75.4121 62.136 75.5001 62.092C75.5441 62.136 75.5441 62.224 75.5881 62.312C75.5001 62.312 75.4561 62.356 75.3681 62.4C75.4121 62.488 75.4121 62.532 75.4561 62.576H75.5441C75.5441 62.664 75.5441 62.708 75.5001 62.796C75.5001 62.708 75.4561 62.664 75.4561 62.576L75.3241 62.708C75.3241 62.796 75.3241 62.84 75.3241 62.928H75.4121C75.4561 63.06 75.4121 63.104 75.3241 63.192L75.2361 63.016C75.2361 63.016 75.1921 63.06 75.1481 63.06C75.1481 63.104 75.1921 63.148 75.1921 63.192L75.0601 63.324C75.0601 63.412 75.0601 63.456 75.1041 63.544C75.0161 63.588 74.9721 63.632 74.9281 63.632L74.9721 63.808C74.9721 63.852 74.9281 63.896 74.9281 63.94H75.0161C75.0161 63.984 74.9721 64.072 74.9721 64.116L74.9281 63.94C74.8841 63.984 74.8841 64.072 74.8841 64.16C74.8841 64.16 74.9281 64.16 74.9721 64.16L74.8841 64.248C74.8841 64.292 74.8841 64.336 74.8401 64.424C74.8401 64.468 74.7961 64.512 74.7961 64.512C74.7521 64.512 74.7521 64.468 74.7521 64.424C74.7081 64.468 74.7081 64.512 74.6641 64.556H74.7521C74.7521 64.6 74.7521 64.688 74.7081 64.732C74.7081 64.688 74.7081 64.6 74.6641 64.556C74.6641 64.6 74.6201 64.688 74.6201 64.776H74.7081C74.7081 64.82 74.6641 64.82 74.6641 64.864C74.6641 64.908 74.6641 64.996 74.6201 65.04C74.5761 64.952 74.5761 64.908 74.5321 64.864C74.5321 64.908 74.5321 64.996 74.5321 65.04H74.5761C74.5761 65.084 74.5321 65.128 74.5321 65.172V65.392C74.4881 65.304 74.4881 65.216 74.4441 65.172L74.3121 65.304ZM76.8641 62.576C76.8641 62.532 76.8201 62.576 76.7761 62.62C76.8201 62.62 76.8641 62.62 76.8641 62.576ZM75.1041 63.808C75.1041 63.852 75.0601 63.896 75.0161 63.896C75.0161 63.896 75.0161 63.852 75.0161 63.808H75.1041ZM74.7961 64.248C74.8401 64.248 74.8401 64.248 74.8841 64.248V64.16C74.8401 64.204 74.7961 64.204 74.7961 64.248ZM74.8401 64.424C74.8401 64.336 74.7961 64.292 74.7961 64.248H74.6641C74.7081 64.292 74.7081 64.38 74.7521 64.424H74.8401ZM76.2481 64.248C76.2041 64.248 76.1601 64.248 76.1161 64.292H76.2481V64.248ZM74.6641 64.864C74.6201 64.82 74.6201 64.82 74.6201 64.776C74.5761 64.82 74.5761 64.82 74.5321 64.864H74.6641ZM74.5321 65.04L74.4441 65.172C74.4881 65.172 74.5321 65.172 74.5321 65.172V65.04ZM75.8961 65.172H75.7641C75.7641 65.216 75.7641 65.216 75.8081 65.26C75.8081 65.216 75.8521 65.216 75.8961 65.172ZM75.7641 65.436C75.7641 65.436 75.7641 65.348 75.7641 65.26H75.7201C75.7201 65.348 75.7201 65.436 75.7641 65.436ZM79.1961 65.348H79.1521C79.1961 65.348 79.1961 65.304 79.1961 65.304V65.348ZM74.4001 65.656C74.3561 65.568 74.3561 65.524 74.3561 65.436H74.4441C74.4001 65.524 74.4001 65.568 74.4001 65.656ZM74.2681 65.964L74.2241 65.788C74.2241 65.788 74.2681 65.788 74.3121 65.788L74.2681 65.964ZM78.1841 66.052C78.2281 66.008 78.3161 65.92 78.4481 65.876C78.4041 66.008 78.3161 66.008 78.1841 66.052ZM77.9641 66.272C78.0081 66.184 78.0521 66.096 78.1401 66.052C78.1401 66.184 78.0081 66.228 77.9641 66.272ZM75.4121 66.36C75.4121 66.316 75.4561 66.228 75.4561 66.184H75.3681C75.3681 66.228 75.3681 66.316 75.4121 66.36ZM77.7001 66.492C77.7441 66.404 77.8321 66.316 77.9201 66.272C77.8761 66.404 77.7881 66.448 77.7001 66.492ZM73.8281 66.536C73.8721 66.58 73.8721 66.624 73.8721 66.668H73.9601C73.9601 66.58 73.9601 66.58 73.9161 66.492C73.9161 66.536 73.8721 66.536 73.8281 66.536ZM77.3921 66.8C77.3921 66.58 77.5241 66.58 77.6561 66.492C77.6121 66.624 77.5241 66.712 77.3921 66.8ZM73.7401 67.02H73.8721C73.8281 66.932 73.8281 66.844 73.7841 66.8C73.7841 66.844 73.7401 66.932 73.7401 67.02ZM76.9521 67.108L77.0841 67.02C77.0401 67.064 76.9961 67.108 76.9521 67.108ZM73.5641 67.152C73.6081 67.196 73.6081 67.24 73.6081 67.284C73.6521 67.284 73.6961 67.284 73.7401 67.284L73.6521 67.108C73.6521 67.108 73.6081 67.152 73.5641 67.152ZM75.6321 67.196C75.5881 67.284 75.5001 67.372 75.4121 67.416C75.4561 67.284 75.5441 67.24 75.6321 67.196ZM76.6441 67.416C76.6881 67.284 76.7761 67.24 76.8641 67.196C76.8201 67.284 76.7321 67.372 76.6441 67.416ZM73.4761 67.416C73.4761 67.504 73.4761 67.548 73.4761 67.636H73.6081C73.6081 67.548 73.5641 67.46 73.5641 67.416H73.4761ZM76.3801 67.592C76.4241 67.504 76.5121 67.46 76.6001 67.416C76.5561 67.504 76.5121 67.592 76.3801 67.592ZM73.3881 67.768C73.3881 67.768 73.3881 67.856 73.3881 67.9H73.4761C73.4761 67.812 73.4321 67.768 73.4321 67.724L73.3881 67.768ZM76.0721 67.9C76.1161 67.812 76.2041 67.768 76.2921 67.768C76.2481 67.812 76.1601 67.856 76.0721 67.9ZM73.3001 68.252H73.3881C73.3881 68.164 73.3441 68.076 73.3441 68.032C73.3001 68.076 73.3001 68.164 73.3001 68.252ZM75.7201 68.252C75.7641 68.12 75.8521 68.076 75.9841 68.032C75.9401 68.164 75.8521 68.208 75.7201 68.252ZM73.1681 68.516H73.2561C73.2561 68.472 73.2121 68.384 73.2121 68.34L73.1681 68.516ZM75.4121 68.516C75.4561 68.428 75.5441 68.34 75.6761 68.34C75.6321 68.428 75.5441 68.516 75.4121 68.516ZM75.0601 68.912C75.1041 68.78 75.1481 68.692 75.3241 68.648C75.2801 68.824 75.1481 68.912 75.0601 68.912ZM74.7081 69.264C74.7521 69.088 74.8841 69 75.0161 68.956C74.9721 69.088 74.8401 69.176 74.7081 69.264ZM107.371 63.588C107.107 63.368 107.063 63.368 106.799 63.588C106.755 63.632 106.711 63.676 106.623 63.72C105.875 64.336 105.215 65.04 104.511 65.7C103.763 66.404 103.015 67.108 102.311 67.856C101.651 68.472 100.991 69.132 100.331 69.792C99.5832 70.54 98.8352 71.332 98.1312 72.08L97.7352 72.388C97.6472 72.476 97.6472 72.476 97.4272 72.3H97.4712C97.4712 72.036 97.5152 71.772 97.6472 71.552C97.7352 70.936 97.9112 70.364 98.2192 69.792C98.2192 69.572 98.3072 69.352 98.3952 69.176L99.0552 67.372C99.0992 67.24 99.1432 67.108 99.2752 67.02C99.3192 66.976 99.3192 66.888 99.3632 66.844C99.4072 66.668 99.4512 66.492 99.5832 66.36H99.5392C99.5832 66.228 99.5832 66.14 99.6712 66.052C99.6712 65.876 99.7592 65.7 99.8472 65.568C99.9352 65.304 100.023 65.084 100.155 64.864V64.908C100.155 64.82 100.199 64.776 100.243 64.732C100.243 64.468 100.375 64.248 100.551 64.028C100.551 63.72 100.727 63.412 100.903 63.192C100.947 63.104 100.947 63.016 100.991 62.884C101.035 62.84 101.079 62.752 101.079 62.708L100.859 62.576L100.903 62.4C100.991 62.18 101.079 62.004 101.123 61.784V61.96C101.255 61.828 101.299 61.696 101.299 61.564L101.167 61.74C101.211 61.608 101.255 61.52 101.343 61.388C101.651 60.86 101.827 60.244 102.047 59.628C102.179 59.188 102.091 58.88 101.695 58.616C101.607 58.528 101.519 58.484 101.387 58.396C101.167 58.264 101.035 58.264 100.815 58.44C100.639 58.572 100.463 58.748 100.331 58.924C99.5832 59.628 98.9672 60.508 98.2632 61.256V61.3L98.0872 61.212C97.7792 61.696 97.4272 62.136 97.1192 62.62C96.8992 62.884 96.8552 62.884 96.5912 62.796C96.3272 62.708 96.0632 62.62 95.7992 62.62C94.8312 62.576 94.0392 62.884 93.2472 63.412C92.5432 63.896 91.9272 64.556 91.3992 65.26C91.2232 65.524 91.0472 65.832 90.8712 66.184C90.7392 66.492 90.6512 66.8 90.6072 67.196C90.5632 67.372 90.5632 67.548 90.6512 67.68C90.8712 68.164 91.1792 68.56 91.7072 68.736C91.9712 68.824 92.1912 68.824 92.4552 68.78C92.8072 68.692 93.1592 68.56 93.4672 68.384C94.8752 67.592 96.0632 66.536 97.0752 65.304C97.1192 65.26 97.1192 65.216 97.1632 65.216C97.1192 65.216 97.1192 65.216 97.0752 65.216L97.1632 65.084C97.2072 65.084 97.2512 65.04 97.2512 64.996C97.3392 64.908 97.3832 64.82 97.4272 64.732H97.4712C97.4712 64.688 97.5152 64.644 97.5592 64.644V64.732C97.6032 64.688 97.6032 64.644 97.6472 64.644V64.6C97.7352 64.6 97.8672 64.6 97.8672 64.732V65.26C97.8672 65.436 97.8672 65.568 98.0432 65.612C98.0872 65.656 98.1312 65.7 98.0872 65.788C98.0872 65.876 98.0432 66.008 97.9992 66.096C97.8232 66.58 97.6472 67.02 97.5152 67.504C97.0312 68.824 96.5032 70.144 96.1952 71.508C96.1072 71.86 96.0632 72.168 96.0632 72.52C96.0632 72.916 96.1952 73.18 96.4592 73.4L96.6792 73.532C97.0312 73.84 97.4272 73.84 97.8232 73.664C98.0432 73.532 98.2632 73.4 98.4392 73.224C99.1872 72.564 99.9352 71.86 100.595 71.068C101.079 70.584 101.519 70.1 101.959 69.572C102.707 68.78 103.455 67.988 104.159 67.196C104.291 67.108 104.423 67.02 104.467 66.844C104.247 66.932 104.115 67.108 103.983 67.284C103.851 67.372 103.763 67.548 103.587 67.592C103.543 67.636 103.543 67.68 103.499 67.68C103.455 67.724 103.455 67.768 103.411 67.768C103.411 67.724 103.455 67.724 103.499 67.68C103.499 67.636 103.543 67.592 103.587 67.592C103.631 67.504 103.675 67.416 103.719 67.372C104.379 66.712 105.039 66.096 105.655 65.436L105.919 65.304C105.919 65.26 105.963 65.216 106.007 65.216C106.007 65.172 106.051 65.128 106.095 65.128L106.183 64.996C106.227 64.996 106.271 64.952 106.271 64.908V64.996C106.447 64.952 106.535 64.864 106.623 64.776L107.415 64.028C107.591 63.852 107.591 63.764 107.371 63.588ZM100.507 59.276C100.507 59.232 100.551 59.232 100.551 59.188C100.595 59.144 100.595 59.144 100.639 59.188L100.595 59.232C100.595 59.232 100.551 59.276 100.507 59.276C100.463 59.408 100.375 59.496 100.243 59.54C100.331 59.452 100.375 59.364 100.507 59.276ZM99.3632 60.596C99.3632 60.552 99.4072 60.508 99.4512 60.464C99.4952 60.288 99.6272 60.156 99.7592 60.068C99.8472 59.892 99.9792 59.76 100.155 59.672C100.199 59.628 100.199 59.584 100.243 59.584C100.243 59.584 100.243 59.628 100.243 59.672H100.155C100.155 59.716 100.155 59.76 100.199 59.804C100.199 59.804 100.243 59.76 100.287 59.76L100.199 59.892C100.155 60.024 100.067 60.112 99.9352 60.156C99.8912 60.2 99.8912 60.244 99.8472 60.288V60.2C99.8032 60.244 99.7592 60.288 99.7592 60.332C99.7152 60.42 99.6272 60.508 99.4952 60.508L99.4072 60.64C99.3632 60.772 99.2312 60.816 99.1432 60.86L99.3632 60.596ZM99.8472 60.2C99.8912 60.156 99.8912 60.156 99.9352 60.156C99.8912 60.156 99.8912 60.156 99.8472 60.112V60.2ZM98.0432 63.588C98.0432 63.588 97.9992 63.632 97.9552 63.588V63.5C98.0432 63.412 98.0872 63.28 98.1752 63.192C98.1752 63.192 98.2192 63.192 98.2192 63.148L98.3952 62.972C98.4392 62.928 98.4392 62.84 98.4832 62.752L98.6152 62.62V62.664C98.6592 62.62 98.6592 62.576 98.6592 62.576L98.7472 62.444C98.8352 62.4 98.9232 62.356 98.9672 62.268C98.9232 62.268 98.9232 62.268 98.8792 62.312L99.0112 62.18H99.0552C98.8792 62.488 98.6592 62.752 98.4392 63.016C98.3512 63.236 98.2192 63.412 98.0432 63.588ZM98.9672 62.268C98.9672 62.224 99.0112 62.224 99.0112 62.18C98.9672 62.224 98.9672 62.224 98.9672 62.268ZM98.4832 64.908C98.4832 64.952 98.4392 64.996 98.3952 65.04C98.2632 65.04 98.3072 64.952 98.3072 64.908C98.2632 64.732 98.2632 64.556 98.2192 64.38C98.1312 64.072 98.1312 63.852 98.2632 63.632L99.2752 62.224C99.5392 62.4 98.6152 64.644 98.4832 64.908ZM100.639 63.06C100.639 62.884 100.683 62.752 100.815 62.62C100.815 62.796 100.727 62.928 100.639 63.06ZM101.123 62.708H101.079C101.079 62.752 101.079 62.84 101.123 62.884V62.708ZM92.8512 67.24C92.5872 67.46 92.2792 67.592 92.0152 67.724C91.8392 67.768 91.7072 67.68 91.7512 67.504C91.8392 67.064 91.9272 66.58 92.1912 66.184C92.4552 65.744 92.7192 65.348 93.1152 65.04C93.2032 64.908 93.3352 64.776 93.3352 64.6C93.1592 64.688 93.0272 64.864 92.8952 64.996C92.8072 65.084 92.7192 65.216 92.5432 65.304C92.4992 65.48 92.4112 65.612 92.2792 65.656C92.3232 65.524 92.4112 65.348 92.5432 65.304C92.8512 64.732 93.2912 64.336 93.7752 64.028C93.8632 63.94 93.9512 63.896 94.0832 63.852C94.0392 63.984 93.9512 64.028 93.8192 64.072C93.7312 64.248 93.5112 64.336 93.4232 64.512C93.5992 64.512 93.7312 64.38 93.8632 64.292C94.2152 64.028 94.6112 63.764 95.0072 63.588C95.3592 63.412 95.7552 63.324 96.1072 63.324H96.3272C96.4152 63.368 96.4592 63.456 96.4152 63.5C96.2832 63.676 96.1952 63.852 96.0632 63.984L95.2272 65.04C94.5232 65.832 93.7312 66.58 92.8512 67.24ZM100.507 63.456L100.463 63.5C100.419 63.5 100.419 63.456 100.419 63.412C100.463 63.368 100.507 63.368 100.507 63.324V63.456ZM92.6752 64.424H92.7632C92.7192 64.38 92.6752 64.38 92.6752 64.336C92.8072 64.072 93.0272 63.852 93.2912 63.764L93.4232 63.676C93.4672 63.588 93.5552 63.588 93.5992 63.588C93.5552 63.632 93.5112 63.676 93.4232 63.676C93.3792 63.72 93.3792 63.764 93.3352 63.764C93.2472 64.072 92.9832 64.248 92.7632 64.424C92.7192 64.468 92.6752 64.512 92.6752 64.512V64.424ZM97.0752 63.676C97.0312 63.676 96.9872 63.72 96.9872 63.764H96.8992C96.8992 63.588 96.9432 63.588 97.0752 63.676ZM106.403 64.204C106.535 64.072 106.667 63.896 106.887 63.764C106.711 64.072 106.711 64.072 106.403 64.204ZM94.8752 66.272C94.7432 66.316 94.6112 66.448 94.4792 66.448C94.7432 66.052 95.0952 65.788 95.4032 65.436C95.5792 65.216 95.7552 64.996 95.9752 64.776C96.0192 64.776 96.0632 64.732 96.0632 64.688C96.1512 64.556 96.2392 64.424 96.3712 64.336C96.4152 64.292 96.4592 64.248 96.5032 64.248C96.5472 64.072 96.6352 63.94 96.7672 63.852C96.7672 63.94 96.7672 63.984 96.7672 64.072H96.8992C96.8552 64.072 96.8112 64.116 96.7672 64.116V64.072C96.7232 64.072 96.7232 64.116 96.6792 64.16H96.7672C96.7672 64.248 96.6792 64.336 96.5912 64.424C96.5912 64.38 96.5912 64.292 96.5912 64.248H96.5032C96.4592 64.292 96.4592 64.336 96.4152 64.336C96.4152 64.424 96.4152 64.468 96.4152 64.512H96.5032C96.4592 64.556 96.4152 64.6 96.4152 64.6V64.512C96.3712 64.556 96.3272 64.6 96.2832 64.6C96.2832 64.644 96.2392 64.688 96.1952 64.732C96.2392 64.732 96.2832 64.732 96.2832 64.732V64.644C96.3272 64.644 96.3712 64.644 96.3712 64.644L96.2832 64.732C96.2832 64.82 96.1952 64.952 96.1072 64.996C96.0632 65.04 96.0632 65.084 96.0192 65.084V64.996C95.9752 65.04 95.9312 65.084 95.9312 65.128C95.9312 65.128 95.9752 65.128 96.0192 65.128L95.9312 65.216C95.8872 65.26 95.8872 65.304 95.8432 65.304V65.216C95.7992 65.216 95.7552 65.26 95.7112 65.304H95.7552H95.7992C95.7552 65.524 95.6232 65.656 95.4472 65.788C95.4032 65.788 95.3592 65.832 95.3592 65.876V65.788C95.3152 65.788 95.2712 65.832 95.2272 65.876H95.3152C95.3152 65.92 95.2712 65.92 95.2712 65.964C95.2272 65.92 95.2272 65.92 95.2272 65.876C95.2272 65.92 95.1832 65.92 95.1392 65.964H95.2272C95.2272 66.008 95.1832 66.008 95.1392 66.052C95.0952 66.096 95.0952 66.14 95.0512 66.14V66.052C95.0072 66.096 94.9632 66.14 94.9632 66.184H95.0512C95.0072 66.184 95.0072 66.228 94.9632 66.228V66.184C94.9192 66.184 94.8752 66.228 94.8752 66.272ZM97.5152 64.336C96.9432 65.04 96.3712 65.744 95.7552 66.36C95.6232 66.492 95.5352 66.58 95.3592 66.668L95.2712 66.756C95.2272 66.844 95.1392 66.888 95.0512 66.932C95.0952 66.8 95.1392 66.756 95.2272 66.712C95.2712 66.668 95.3152 66.668 95.3152 66.624L95.5352 66.36C96.1512 65.7 96.7672 65.04 97.2952 64.336L97.4712 64.16C97.4712 64.116 97.5592 64.116 97.5592 64.116C97.6032 64.16 97.6032 64.204 97.5592 64.248C97.5592 64.292 97.5592 64.292 97.5152 64.336ZM100.067 64.424C100.067 64.336 100.067 64.248 100.155 64.16C100.111 64.248 100.111 64.336 100.067 64.424ZM92.6312 64.336C92.6312 64.38 92.6312 64.38 92.6312 64.424H92.5872C92.5872 64.38 92.6312 64.38 92.6312 64.336ZM92.5432 64.424C92.5432 64.468 92.5432 64.512 92.5432 64.512H92.6312C92.6312 64.556 92.5872 64.6 92.5432 64.6C92.5432 64.6 92.5432 64.556 92.5432 64.512H92.4552C92.4992 64.512 92.5432 64.468 92.5432 64.424ZM92.4552 64.556V64.6H92.3672C92.4112 64.6 92.4112 64.556 92.4552 64.556ZM92.2792 64.732C92.3232 64.688 92.3232 64.644 92.3672 64.644C92.3672 64.644 92.3672 64.688 92.3672 64.732H92.4552C92.4552 64.688 92.4552 64.644 92.4552 64.644H92.5432C92.4992 64.644 92.4992 64.688 92.4552 64.732L92.3672 64.82C92.3672 64.776 92.3672 64.776 92.3672 64.732H92.2792C92.2792 64.776 92.2792 64.776 92.2792 64.82H92.1912C92.1912 64.776 92.2352 64.732 92.2792 64.732ZM96.1072 64.82C96.1512 64.776 96.1952 64.776 96.1952 64.732H96.1512C96.1072 64.776 96.1072 64.776 96.1072 64.82ZM96.0632 64.864C96.0192 64.908 96.0192 64.952 96.0192 64.996H96.1072C96.1072 64.952 96.1072 64.864 96.1072 64.82L96.0632 64.864ZM106.183 65.084C106.227 65.084 106.227 65.04 106.271 64.996C106.227 64.996 106.227 64.996 106.183 64.996V65.084ZM105.127 65.568C104.995 65.7 104.863 65.788 104.687 65.832C104.951 65.524 105.215 65.216 105.611 65.04L105.127 65.568ZM95.8432 65.216C95.8432 65.216 95.8872 65.216 95.9312 65.216V65.128C95.8872 65.128 95.8432 65.172 95.8432 65.216ZM97.1632 65.172C97.2072 65.172 97.2512 65.128 97.2512 65.128C97.2512 65.128 97.2072 65.128 97.1632 65.128V65.172ZM106.183 65.128C106.139 65.128 106.139 65.128 106.095 65.128V65.172C106.139 65.172 106.139 65.128 106.183 65.128ZM106.095 65.216C106.051 65.216 106.007 65.216 106.007 65.216V65.304C106.007 65.26 106.051 65.216 106.095 65.216ZM99.4512 65.744C99.4952 65.568 99.5392 65.436 99.6712 65.304C99.6272 65.48 99.5832 65.612 99.4512 65.744ZM105.523 65.744C105.743 65.656 105.875 65.524 106.007 65.304C105.963 65.304 105.919 65.304 105.919 65.304L105.523 65.744ZM99.8912 65.568H99.8472V65.612C99.8472 65.612 99.8472 65.568 99.8912 65.568ZM92.2792 65.7C92.2352 65.788 92.1912 65.876 92.0592 65.92C92.1472 65.832 92.1912 65.744 92.2792 65.7ZM105.435 65.876C105.435 65.832 105.479 65.832 105.523 65.788C105.479 65.788 105.435 65.832 105.435 65.876ZM105.391 65.876C105.083 66.14 104.819 66.404 104.555 66.712C104.951 66.536 105.215 66.228 105.391 65.876ZM95.0512 66.052C95.0952 66.052 95.0952 66.052 95.1392 66.052V65.964C95.0952 66.008 95.0952 66.052 95.0512 66.052ZM103.235 67.284C103.455 66.976 103.763 66.712 104.071 66.448C103.895 66.844 103.587 67.108 103.235 67.284ZM104.555 66.756V66.712C104.511 66.756 104.467 66.8 104.467 66.844C104.511 66.8 104.511 66.756 104.555 66.756ZM94.6992 67.196C94.7432 67.108 94.8312 67.064 94.9192 67.064C94.8752 67.108 94.7872 67.196 94.6992 67.196ZM103.015 67.504C102.883 67.812 102.663 68.032 102.355 68.164C102.531 67.9 102.751 67.68 103.015 67.504ZM98.7032 67.68V67.636C98.7472 67.636 98.7472 67.68 98.7032 67.68ZM103.235 67.988L103.147 68.076C103.103 68.12 103.059 68.164 103.015 68.208L102.927 68.296C102.927 68.34 102.883 68.34 102.839 68.384C102.531 68.868 102.135 69.264 101.695 69.616C101.695 69.572 101.695 69.528 101.739 69.484C102.047 69.088 102.399 68.692 102.839 68.34L102.927 68.252C102.927 68.208 102.971 68.208 103.015 68.164C103.059 68.12 103.059 68.076 103.103 68.076L103.191 67.988C103.235 67.944 103.235 67.9 103.323 67.9C103.279 67.944 103.279 67.988 103.235 67.988ZM102.223 68.296C102.223 68.34 102.223 68.34 102.179 68.34L102.223 68.296ZM101.563 69.044C101.211 69.44 100.859 69.88 100.463 70.188C100.507 70.1 100.507 70.012 100.595 69.968C100.947 69.572 101.255 69.176 101.651 68.868C101.651 68.956 101.607 69 101.563 69.044ZM98.2192 68.956C98.2192 69.132 98.1312 69.264 98.0432 69.396C98.0872 69.22 98.0872 69.088 98.2192 68.956ZM101.607 69.704C101.607 69.66 101.607 69.66 101.651 69.616C101.651 69.66 101.607 69.66 101.607 69.704ZM101.475 69.792L101.563 69.704C101.563 69.748 101.519 69.792 101.475 69.792ZM101.387 69.924C101.167 70.276 100.903 70.584 100.551 70.848C100.727 70.54 101.035 70.144 101.387 69.924C101.431 69.88 101.431 69.836 101.475 69.836C101.475 69.88 101.431 69.88 101.387 69.924ZM118.556 59.892C118.556 59.848 118.6 59.804 118.6 59.804C118.6 59.716 118.6 59.672 118.6 59.628L118.424 59.496C117.984 59.232 117.544 59.276 117.06 59.584C116.884 59.672 116.708 59.804 116.532 59.98C115.916 60.552 115.3 61.124 114.728 61.74C114.112 62.444 113.408 63.192 112.792 63.896L111.208 65.744C110.812 66.184 110.46 66.668 110.064 67.108C109.492 67.812 108.92 68.56 108.392 69.264C108.084 69.572 107.82 69.924 107.556 70.232C107.512 70.32 107.468 70.32 107.424 70.364C107.248 70.276 107.292 70.144 107.292 70.012C107.38 69.088 107.424 68.208 107.556 67.328C107.732 66.404 107.864 65.48 107.996 64.512C108.084 64.028 108.172 63.5 108.216 63.016C108.26 62.576 108.128 62.224 107.732 62.004C107.292 61.784 107.16 61.828 107.028 62.4C106.808 63.148 106.632 63.94 106.456 64.732C106.148 65.876 105.972 67.02 105.884 68.164C105.796 69.132 105.752 70.056 105.708 70.98C105.664 71.64 105.84 72.168 106.28 72.608C106.676 73.004 107.424 73.048 107.908 72.52C108.26 72.212 108.568 71.816 108.92 71.42C108.964 71.332 109.052 71.244 109.096 71.112C109.272 70.848 109.492 70.672 109.712 70.452L111.032 68.736C111.164 68.604 111.252 68.428 111.34 68.296C111.384 68.164 111.472 68.032 111.604 67.988C111.648 67.9 111.692 67.812 111.736 67.768C111.78 67.724 111.78 67.724 111.824 67.68L111.956 67.46C111.956 67.548 111.912 67.592 111.868 67.68C111.956 67.592 112.044 67.504 112.132 67.372C112.088 67.416 112.044 67.416 112 67.46L112.132 67.196C112.352 66.976 112.528 66.756 112.704 66.536C112.748 66.448 112.792 66.404 112.836 66.316V66.536C112.836 66.448 112.88 66.404 112.88 66.316C112.924 66.316 112.968 66.272 113.012 66.228C113.012 66.096 113.056 66.008 113.188 65.964C113.232 65.832 113.32 65.744 113.452 65.656C113.496 65.568 113.584 65.48 113.672 65.348C113.936 64.952 114.288 64.556 114.64 64.16C114.728 64.072 114.816 64.028 114.948 63.94C114.948 63.852 114.992 63.808 115.036 63.72C115.036 63.808 115.08 63.852 115.08 63.896V63.72C115.212 63.632 115.344 63.5 115.476 63.324C115.652 63.06 115.828 62.84 116.048 62.62C116.4 62.18 116.928 61.872 117.236 61.344V61.3C117.632 60.992 118.028 60.684 118.38 60.376C118.512 60.244 118.6 60.156 118.732 60.024V59.936C118.644 59.936 118.6 59.892 118.556 59.892ZM111.648 66.052C111.648 65.92 111.736 65.832 111.868 65.744C112.088 65.348 112.44 65.04 112.748 64.688C112.836 64.512 112.968 64.38 113.144 64.336C113.144 64.204 113.232 64.072 113.364 64.028C113.408 63.852 113.54 63.72 113.716 63.632C113.76 63.456 113.848 63.324 114.024 63.236L114.376 62.84C114.464 62.708 114.596 62.62 114.728 62.488C114.904 62.136 115.212 61.872 115.476 61.608C116.048 60.948 116.576 60.42 116.972 60.2C116.928 60.42 116.928 60.42 116.62 60.772C116.488 60.992 116.312 61.168 116.092 61.256C116.048 61.3 116.004 61.3 116.004 61.344C115.916 61.564 115.784 61.696 115.564 61.828V61.784L115.52 61.828H115.476C115.476 62.004 115.344 62.136 115.212 62.224H115.124C115.124 62.4 114.992 62.488 114.86 62.62C114.904 62.532 114.904 62.444 114.948 62.4C114.86 62.444 114.816 62.488 114.728 62.488C114.728 62.576 114.728 62.62 114.684 62.708C114.728 62.664 114.772 62.664 114.816 62.664C114.728 62.84 114.596 62.972 114.42 63.104C114.42 63.016 114.464 62.972 114.464 62.884H114.42L114.288 63.104C114.332 63.104 114.376 63.148 114.376 63.148C114.332 63.236 114.288 63.28 114.2 63.368C114.244 63.28 114.244 63.236 114.244 63.148L114.068 63.28C114.024 63.324 113.98 63.412 113.936 63.5C113.98 63.5 114.024 63.544 114.068 63.544L113.848 63.764C113.892 63.676 113.892 63.588 113.936 63.5C113.848 63.544 113.76 63.588 113.716 63.632L113.584 63.896C113.628 63.896 113.672 63.896 113.716 63.94C113.628 63.984 113.584 64.072 113.54 64.116C113.54 64.028 113.584 63.984 113.584 63.896C113.54 63.94 113.452 63.984 113.364 64.028C113.364 64.116 113.32 64.16 113.32 64.248C113.364 64.248 113.408 64.204 113.452 64.204C113.364 64.336 113.276 64.424 113.188 64.512C113.188 64.468 113.232 64.38 113.276 64.292C113.232 64.292 113.188 64.336 113.144 64.336C113.1 64.38 113.056 64.468 113.056 64.556C113.056 64.556 113.1 64.6 113.144 64.6C113.056 64.688 112.968 64.732 112.924 64.82C112.924 64.732 112.968 64.644 113.012 64.556C112.924 64.644 112.88 64.688 112.792 64.732C112.792 64.776 112.792 64.82 112.748 64.908C112.792 64.864 112.836 64.864 112.88 64.864C112.792 64.952 112.704 65.084 112.616 65.216C112.616 65.128 112.66 65.084 112.66 64.996C112.616 65.04 112.528 65.128 112.484 65.216C112.484 65.216 112.528 65.26 112.572 65.26C112.484 65.348 112.396 65.392 112.352 65.48C112.352 65.392 112.396 65.348 112.44 65.26L112.176 65.568C112.22 65.568 112.264 65.524 112.308 65.524C112.22 65.612 112.176 65.7 112.132 65.788C112.132 65.7 112.176 65.612 112.176 65.568L111.868 65.744C111.868 65.832 111.868 65.876 111.824 65.964C111.868 65.964 111.912 65.964 111.956 65.92C111.912 66.008 111.868 66.096 111.824 66.14V65.964C111.78 65.964 111.692 66.008 111.648 66.052C111.648 66.096 111.604 66.184 111.604 66.228H111.736C111.692 66.316 111.648 66.36 111.56 66.448C111.604 66.36 111.604 66.316 111.604 66.228C111.56 66.272 111.472 66.316 111.384 66.316L111.648 66.052ZM117.632 60.684C115.916 62.312 114.376 64.16 112.88 65.964C111.428 67.68 110.064 69.396 108.744 71.156C108.568 71.42 108.348 71.64 108.172 71.86L107.952 72.08C107.908 72.036 107.908 72.036 107.908 71.992C107.952 71.948 107.996 71.86 108.04 71.772C110.372 68.736 112.792 65.744 115.3 62.84C115.96 62.136 116.576 61.432 117.28 60.816C117.412 60.684 117.544 60.508 117.764 60.464C117.764 60.596 117.676 60.64 117.632 60.684ZM115.564 61.652V61.784C115.608 61.74 115.608 61.652 115.608 61.608C115.608 61.652 115.564 61.652 115.564 61.652ZM107.82 71.112V71.156H107.776H107.688C107.644 71.2 107.644 71.244 107.644 71.288C107.644 71.288 107.644 71.244 107.644 71.2L107.512 71.42C107.468 71.42 107.424 71.42 107.38 71.376C107.38 71.332 107.38 71.288 107.424 71.244C108.348 70.056 109.272 68.868 110.24 67.636L110.328 67.548C110.416 67.46 110.504 67.372 110.548 67.284C110.636 67.152 110.724 67.064 110.812 66.976C110.944 66.712 111.12 66.492 111.428 66.316C111.384 66.404 111.384 66.448 111.384 66.536H111.516C111.428 66.624 111.384 66.756 111.252 66.8C111.208 66.932 111.12 67.02 111.032 67.064V67.108C111.032 67.108 110.988 67.108 110.988 67.152L110.768 67.372C110.724 67.504 110.68 67.592 110.548 67.68C110.46 67.768 110.416 67.856 110.328 67.988C110.24 68.076 110.152 68.164 110.108 68.252C110.02 68.384 109.976 68.472 109.844 68.56C109.8 68.648 109.756 68.78 109.624 68.824C109.536 68.912 109.492 68.956 109.448 69.044H109.316C109.36 69.132 109.316 69.22 109.272 69.308L109.052 69.528C109.052 69.572 109.008 69.572 109.008 69.616H108.964C108.964 69.704 108.92 69.748 108.832 69.792C108.876 69.748 108.92 69.66 108.92 69.572C108.832 69.704 108.788 69.792 108.7 69.88H108.788C108.744 69.924 108.7 69.968 108.7 70.012C108.7 70.056 108.656 70.056 108.656 70.1H108.612C108.568 70.188 108.524 70.276 108.436 70.364C108.392 70.496 108.304 70.584 108.216 70.628V70.672H108.172C108.128 70.76 108.084 70.804 108.04 70.848H107.952C107.952 70.98 107.908 71.024 107.82 71.112ZM111.12 66.8H111.252C111.252 66.756 111.252 66.668 111.252 66.624L111.12 66.8ZM110.856 67.02C110.812 67.064 110.812 67.152 110.812 67.196C110.856 67.152 110.9 67.152 110.988 67.152V67.108C110.988 67.108 111.032 67.108 111.032 67.064C111.032 67.02 111.032 66.976 111.032 66.888L110.856 67.02ZM110.636 67.328C110.592 67.372 110.592 67.416 110.548 67.46L110.416 67.592C110.372 67.68 110.372 67.724 110.328 67.768L110.548 67.68C110.548 67.592 110.548 67.548 110.592 67.504L110.768 67.372C110.768 67.328 110.812 67.24 110.812 67.196L110.636 67.328ZM110.284 67.944C110.328 67.9 110.328 67.812 110.328 67.768C110.328 67.812 110.284 67.9 110.24 67.944H110.284ZM111.736 67.768C111.692 67.812 111.692 67.9 111.692 67.944C111.736 67.9 111.736 67.812 111.736 67.768ZM110.108 68.076C110.064 68.12 110.064 68.164 110.02 68.252L110.064 68.208C110.064 68.164 110.064 68.12 110.108 68.076ZM109.756 68.56C109.756 68.56 109.8 68.56 109.844 68.56V68.384C109.8 68.428 109.8 68.472 109.756 68.56ZM109.492 68.824H109.624C109.624 68.78 109.624 68.692 109.624 68.648L109.492 68.824ZM109.096 69.308C109.14 69.308 109.228 69.308 109.272 69.308V69.088C109.228 69.176 109.184 69.22 109.096 69.308ZM108.92 69.616H108.964C109.008 69.616 109.008 69.572 109.008 69.572L109.052 69.528C109.052 69.484 109.052 69.44 109.052 69.396L108.92 69.616ZM108.612 70.1C108.656 70.1 108.656 70.056 108.656 70.056C108.656 70.056 108.656 70.056 108.7 70.012V69.88C108.656 69.968 108.612 70.012 108.524 70.1H108.612ZM108.348 70.364H108.436C108.436 70.32 108.436 70.232 108.48 70.188L108.348 70.364ZM108.084 70.672C108.128 70.672 108.128 70.672 108.172 70.672L108.216 70.628C108.216 70.584 108.216 70.54 108.216 70.452L108.084 70.672ZM107.776 71.156L107.82 71.112C107.82 71.068 107.864 71.024 107.864 70.936C107.864 71.024 107.82 71.068 107.776 71.156Z" fill="black"/>
</svg>
